<?xml version="1.0" standalone="no"?>
<!DOCTYPE svg PUBLIC "-//W3C//DTD SVG 20010904//EN"
 "http://www.w3.org/TR/2001/REC-SVG-20010904/DTD/svg10.dtd">
<svg version="1.0" xmlns="http://www.w3.org/2000/svg"
 width="3000.000000pt" height="2000.000000pt" viewBox="0 0 3000.000000 2000.000000"
 preserveAspectRatio="xMidYMid meet">

<g transform="translate(0.000000,2000.000000) scale(0.100000,-0.100000)"
fill="#000000" stroke="none">
<path d="M0 10000 l0 -10000 15000 0 15000 0 0 10000 0 10000 -15000 0 -15000
0 0 -10000z m27031 -6163 c16 -241 14 -235 174 -444 96 -125 141 -195 198
-308 45 -90 119 -193 197 -275 34 -36 100 -122 146 -193 89 -134 151 -203 191
-213 13 -4 40 -4 59 -1 32 5 33 4 23 -15 -39 -72 -285 -328 -474 -491 -77 -67
-183 -160 -235 -208 -52 -48 -153 -137 -225 -198 -110 -95 -135 -111 -160
-109 -29 3 -30 4 -29 53 0 28 4 223 8 435 4 212 11 412 16 445 6 34 12 193 15
355 3 162 9 311 15 330 5 19 10 144 10 280 0 184 3 249 13 258 8 9 14 72 20
195 12 285 11 277 20 261 5 -9 13 -79 18 -157z"/>
</g>
</svg>
