<?xml version="1.0" standalone="no"?>
<!DOCTYPE svg PUBLIC "-//W3C//DTD SVG 20010904//EN"
 "http://www.w3.org/TR/2001/REC-SVG-20010904/DTD/svg10.dtd">
<svg version="1.0" xmlns="http://www.w3.org/2000/svg"
 width="3240.000000pt" height="2100.000000pt" viewBox="0 0 3240.000000 2100.000000"
 preserveAspectRatio="xMidYMid meet">

<g transform="translate(0.000000,2100.000000) scale(0.100000,-0.100000)"
fill="#000000" stroke="none">
<path d="M0 10500 l0 -10500 16200 0 16200 0 0 10500 0 10500 -16200 0 -16200
0 0 -10500z m30992 9119 c221 -47 388 -255 388 -484 0 -231 -165 -436 -388
-484 -75 -16 -3599 -16 -3674 0 -223 48 -388 253 -388 484 0 226 157 427 375
481 69 17 3607 20 3687 3z m-29528 -63 c45 -19 76 -61 76 -105 0 -20 -7 -69
-17 -108 l-17 -73 -77 0 -77 0 14 53 c7 28 14 64 14 80 0 24 -3 27 -35 27 -27
0 -38 -5 -45 -22 -14 -33 -120 -512 -120 -543 0 -21 5 -25 30 -25 36 0 53 24
69 103 l12 57 75 0 c41 0 74 -4 74 -9 0 -5 -7 -40 -16 -79 -30 -135 -96 -199
-213 -209 -113 -10 -191 37 -191 115 0 55 126 596 150 641 23 46 70 85 120 99
52 15 136 14 174 -2z m430 0 c45 -19 76 -61 76 -103 0 -64 -130 -605 -156
-650 -34 -58 -97 -94 -178 -100 -113 -9 -186 37 -186 117 0 56 125 591 149
638 24 47 71 86 121 100 52 15 136 14 174 -2z m2205 1 c50 -17 75 -57 74 -114
-2 -58 -125 -589 -147 -631 -23 -45 -83 -89 -139 -103 -60 -14 -149 -6 -184
16 -34 23 -56 79 -48 124 23 128 130 572 145 601 25 48 70 89 116 105 48 17
137 18 183 2z m875 -1 c45 -19 76 -61 76 -105 0 -20 -7 -69 -17 -108 l-17 -73
-74 0 -75 0 7 38 c4 20 10 56 13 80 6 42 5 42 -25 42 -41 0 -62 -31 -69 -104
l-6 -55 76 -78 c96 -100 106 -129 82 -239 -33 -152 -79 -218 -170 -243 -130
-36 -245 15 -245 108 0 20 7 69 17 109 l17 72 74 0 75 0 -7 -37 c-4 -21 -10
-57 -13 -80 -6 -43 -5 -43 25 -43 39 0 56 24 72 102 14 70 3 97 -67 158 -93
81 -110 138 -77 263 38 149 102 204 242 206 29 1 67 -5 86 -13z m-2653 -6 c19
-6 46 -22 60 -36 20 -21 24 -35 23 -82 -1 -73 -109 -543 -138 -602 -28 -56
-85 -97 -155 -110 -57 -11 -251 -14 -251 -4 0 3 43 192 95 420 52 229 95 417
95 420 0 8 236 4 271 -6z m526 -7 c-3 -10 -11 -42 -17 -70 l-12 -53 -102 0
-103 0 -21 -102 c-12 -57 -22 -106 -22 -110 0 -5 38 -8 85 -8 l85 0 -6 -27
c-3 -16 -10 -45 -15 -65 l-10 -37 -87 -3 -87 -3 -22 -95 c-12 -52 -22 -101
-23 -107 0 -10 27 -13 100 -13 l100 0 -6 -27 c-4 -16 -12 -46 -18 -68 l-12
-40 -174 0 c-111 0 -175 4 -174 10 1 6 43 196 95 423 l93 412 179 0 c165 0
178 -1 174 -17z m320 -2 c50 -23 63 -45 63 -105 0 -53 -34 -205 -55 -245 -17
-34 -70 -81 -91 -81 -19 0 -18 -10 11 -210 14 -95 25 -176 25 -181 0 -5 -36
-9 -79 -9 -67 0 -80 3 -85 18 -2 9 -8 90 -11 180 -4 90 -11 160 -15 155 -4 -4
-22 -75 -40 -158 -46 -212 -36 -195 -120 -195 -57 0 -70 3 -70 16 0 14 175
792 185 822 3 9 37 12 122 12 94 0 126 -4 160 -19z m353 9 c0 -6 -16 -80 -35
-164 -19 -85 -35 -161 -35 -170 0 -12 10 -16 40 -16 33 0 40 4 45 23 33 144
75 329 75 333 0 2 34 4 75 4 41 0 75 -4 75 -9 0 -9 -177 -793 -186 -823 -4
-15 -18 -18 -80 -18 -41 0 -74 3 -74 8 0 5 38 170 75 330 5 20 2 22 -38 22
l-43 0 -33 -142 c-18 -79 -37 -160 -42 -180 l-10 -38 -74 0 c-41 0 -75 2 -75
4 0 3 43 192 95 421 52 229 95 419 95 421 0 2 34 4 75 4 44 0 75 -4 75 -10z
m880 -2 c0 -7 -34 -163 -76 -346 -42 -183 -73 -339 -70 -347 7 -20 50 -19 68
3 8 9 40 130 71 267 31 138 66 292 77 343 l22 92 74 0 c41 0 74 -4 74 -8 0
-14 -139 -622 -157 -687 -30 -105 -113 -165 -230 -165 -57 0 -107 17 -134 46
-38 40 -30 102 55 470 42 182 76 334 76 338 0 3 34 6 75 6 53 0 75 -4 75 -12z
m1087 0 c-2 -7 -10 -39 -17 -70 l-13 -58 -102 0 -102 0 -21 -97 c-12 -54 -22
-104 -22 -110 0 -10 24 -13 86 -13 77 0 85 -2 80 -17 -3 -10 -8 -31 -11 -48
-15 -69 -9 -65 -104 -65 l-87 0 -22 -98 c-12 -53 -22 -103 -22 -109 0 -9 30
-13 98 -15 l98 -3 -15 -65 -16 -65 -179 -3 -178 -2 6 26 c13 49 186 814 186
819 0 3 81 5 181 5 141 0 180 -3 176 -12z m11553 -3593 c0 -8 -70 -315 -156
-681 -85 -367 -154 -676 -152 -687 2 -11 11 -25 20 -31 47 -29 115 44 173 186
26 64 39 84 56 86 19 3 21 0 16 -26 -23 -113 -122 -286 -193 -335 -104 -73
-214 -31 -214 83 0 22 63 313 141 646 106 456 138 608 130 618 -6 7 -34 16
-61 18 -28 3 -54 8 -57 12 -18 18 18 40 83 53 38 8 94 27 124 42 62 33 90 38
90 16z m550 0 c0 -8 -70 -314 -155 -679 -85 -366 -155 -673 -155 -683 0 -26
19 -43 49 -43 48 0 121 110 174 263 4 9 16 17 28 17 18 0 21 -4 16 -29 -23
-112 -123 -285 -193 -334 -104 -73 -214 -31 -214 83 0 22 63 313 141 646 152
653 150 634 85 634 -46 0 -76 11 -76 26 0 18 24 28 116 49 39 9 88 27 110 40
45 28 74 32 74 10z m3940 1 c0 -14 -176 -787 -185 -813 -2 -7 0 -15 5 -18 5
-3 19 14 31 37 40 79 128 208 174 254 63 62 142 98 200 90 53 -8 89 -40 118
-104 38 -84 28 -264 -25 -426 -88 -271 -313 -517 -494 -541 -150 -20 -254 90
-241 254 2 36 60 301 127 589 132 565 130 552 66 552 -46 0 -76 11 -76 26 0
18 24 28 116 49 39 9 88 27 110 40 44 28 74 32 74 11z m-10344 -37 c190 -35
294 -187 310 -454 26 -419 -215 -855 -545 -987 -52 -21 -73 -23 -333 -26 -273
-3 -278 -3 -278 17 0 20 9 25 70 36 58 11 70 16 79 33 14 27 303 1280 299
1299 -2 11 -22 23 -57 33 -55 16 -74 35 -50 51 20 13 434 11 505 -2z m8348 5
c30 -11 16 -33 -26 -44 -24 -7 -53 -18 -65 -26 l-23 -14 0 -368 c0 -443 9
-684 24 -679 14 4 199 355 227 432 20 54 23 83 27 295 2 129 0 258 -5 285 -7
45 -12 52 -46 68 -42 21 -48 44 -14 52 12 3 85 4 162 3 131 -3 140 -4 140 -22
0 -14 -10 -22 -35 -29 -61 -16 -61 -13 -58 -205 2 -110 7 -177 13 -179 6 -2
36 46 68 106 135 257 137 262 87 280 -32 11 -40 35 -14 45 9 3 62 6 119 6 74
0 106 -4 114 -14 15 -18 -2 -31 -51 -40 -50 -9 -65 -31 -181 -256 -115 -222
-134 -270 -147 -363 -13 -92 -2 -457 14 -457 10 0 421 843 473 972 27 66 21
93 -25 104 -33 9 -44 24 -30 41 12 15 254 18 277 4 25 -16 4 -38 -41 -44 -31
-4 -50 -14 -68 -36 -14 -16 -173 -339 -354 -716 -182 -378 -336 -689 -344
-692 -7 -3 -17 -2 -22 3 -5 5 -12 154 -16 332 -4 177 -10 325 -15 327 -11 7
-7 15 -189 -339 -133 -259 -169 -321 -185 -321 -19 0 -20 9 -27 230 -4 127
-11 440 -15 696 -6 371 -11 469 -22 482 -7 9 -31 22 -53 29 -43 13 -59 35 -37
49 16 10 338 12 363 3z m-7296 -438 c77 -40 94 -173 37 -286 -33 -65 -129
-162 -208 -208 -66 -40 -172 -84 -242 -101 -72 -18 -75 -22 -75 -115 0 -106
14 -152 60 -198 32 -32 44 -38 81 -38 94 0 182 75 248 210 34 70 71 104 71 65
0 -54 -106 -241 -170 -299 -109 -98 -247 -112 -336 -34 -208 183 -71 727 240
956 96 70 214 90 294 48z m665 -9 c30 -14 60 -33 65 -44 6 -12 0 -62 -23 -166
-46 -213 -67 -223 -84 -39 -17 188 -35 222 -118 229 -88 8 -153 -58 -153 -152
0 -66 21 -107 124 -250 48 -66 101 -149 119 -185 27 -55 32 -74 31 -140 0 -98
-29 -164 -96 -225 -53 -47 -123 -75 -187 -75 -92 1 -244 51 -258 86 -3 8 5 78
17 155 34 210 60 226 78 48 5 -58 17 -120 26 -137 52 -101 179 -128 265 -56
38 32 55 83 48 149 -7 68 -28 108 -130 244 -123 165 -142 206 -142 311 0 67 5
93 22 126 24 46 75 99 115 120 78 41 194 41 281 1z m794 14 c23 -11 48 -29 55
-40 18 -29 31 -26 71 14 37 37 54 43 63 21 3 -7 -38 -198 -90 -425 -53 -226
-96 -425 -96 -442 0 -68 42 -89 95 -47 29 23 85 133 105 206 11 44 33 63 52
44 13 -13 -22 -152 -57 -231 -98 -214 -336 -213 -335 1 1 29 9 89 20 133 18
77 17 106 -1 75 -100 -165 -134 -215 -190 -270 -74 -76 -136 -106 -195 -97
-51 8 -80 30 -106 80 -21 38 -23 56 -23 182 0 163 18 240 89 391 98 207 239
357 381 406 65 22 110 22 162 -1z m760 -1 c51 -31 59 -80 34 -203 -12 -55 -19
-103 -16 -105 7 -7 4 -11 60 102 27 54 69 120 92 147 75 82 175 102 232 44 36
-36 37 -121 3 -158 -51 -54 -102 -42 -133 29 -13 29 -26 44 -39 44 -67 0 -219
-319 -325 -685 -24 -82 -46 -168 -50 -190 -11 -58 -20 -65 -86 -65 -50 0 -59
3 -59 18 0 9 45 207 101 440 55 233 99 432 97 444 -5 36 -33 45 -71 25 -39
-21 -83 -86 -122 -182 -34 -84 -50 -104 -67 -87 -14 14 0 67 48 171 51 110
106 178 168 207 62 29 91 30 133 4z m810 0 c55 -33 60 -91 23 -254 -6 -27 -8
-51 -5 -54 7 -7 4 -11 60 102 27 54 69 120 92 147 75 82 175 102 232 44 36
-36 37 -121 3 -158 -51 -54 -102 -42 -133 29 -13 29 -26 44 -39 44 -67 0 -219
-319 -325 -685 -24 -82 -46 -168 -50 -190 -11 -58 -20 -65 -86 -65 -50 0 -59
3 -59 18 0 9 45 207 101 440 55 233 99 432 97 444 -5 36 -33 45 -71 25 -39
-21 -83 -86 -122 -182 -34 -84 -50 -104 -67 -87 -14 14 0 67 48 171 51 110
106 178 168 207 62 29 91 30 133 4z m968 9 c224 -60 282 -432 117 -754 -62
-121 -164 -230 -261 -278 -118 -58 -245 -40 -316 45 -220 260 -31 862 307 979
61 21 97 23 153 8z m2020 0 c91 -24 157 -99 191 -214 28 -95 23 -266 -10 -378
-61 -204 -183 -370 -325 -440 -55 -27 -77 -32 -136 -32 -138 1 -225 85 -261
254 -67 316 124 711 388 802 61 21 97 23 153 8z m2673 -13 c50 -26 75 -86 70
-166 -13 -177 -182 -335 -443 -415 -49 -16 -96 -32 -102 -38 -16 -12 -17 -156
-2 -212 6 -22 28 -56 49 -77 32 -32 44 -38 81 -38 94 0 182 75 248 210 34 70
71 104 71 65 0 -26 -49 -133 -91 -201 -173 -273 -466 -234 -509 68 -43 303
190 731 444 814 51 17 142 12 184 -10z m-7210 -3211 c30 -82 71 -198 92 -257
l38 -108 -52 0 -52 0 -20 63 -20 62 -96 3 -96 3 -22 -66 -22 -65 -49 0 c-27 0
-49 2 -49 5 0 3 140 406 175 503 3 9 22 12 62 10 l58 -3 53 -150z m2107 -21
l120 -175 3 176 2 176 48 -3 47 -3 3 -257 2 -258 -44 0 -45 0 -118 171 -118
171 -3 -171 -2 -171 -50 0 -50 0 0 260 0 260 43 0 42 -1 120 -175z m1085 -84
l0 -260 -45 0 c-44 0 -45 1 -45 32 l0 32 -31 -32 c-78 -79 -207 -31 -240 90
-15 56 -6 149 18 190 46 78 151 104 212 52 l31 -26 0 84 c0 47 3 88 7 91 3 4
26 7 50 7 l43 0 0 -260z m610 0 l0 -260 -45 0 -45 0 0 260 0 260 45 0 45 0 0
-260z m-3370 115 c15 -8 38 -27 49 -41 19 -24 21 -40 21 -180 l0 -154 -45 0
c-39 0 -45 3 -45 21 l0 20 -26 -20 c-59 -47 -160 -35 -194 22 -11 18 -20 48
-20 67 0 68 47 105 147 116 70 8 93 19 93 44 0 51 -82 69 -125 26 -22 -22 -46
-25 -93 -10 -21 6 15 58 57 83 44 25 138 28 181 6z m258 -13 l4 -23 25 25 c19
19 36 26 64 26 39 0 39 0 39 -40 l0 -40 -40 0 c-30 0 -47 -7 -65 -25 -24 -23
-25 -29 -25 -155 l0 -130 -45 0 -45 0 0 196 0 195 43 -3 c35 -3 43 -7 45 -26z
m409 17 c96 -36 143 -178 94 -285 -58 -127 -248 -138 -321 -18 -27 43 -37 137
-20 188 15 47 56 95 95 112 37 16 114 18 152 3z m273 -21 l0 -32 31 30 c27 26
37 29 94 29 53 0 67 -4 89 -24 37 -35 46 -79 46 -228 l0 -133 -50 0 -50 0 0
137 c0 157 -7 173 -71 173 -29 0 -42 -6 -58 -26 -19 -24 -21 -40 -21 -155 l0
-129 -45 0 -45 0 0 195 0 195 40 0 c38 0 40 -1 40 -32z m1300 17 c15 -8 38
-27 49 -41 19 -24 21 -40 21 -180 l0 -154 -45 0 c-39 0 -45 3 -45 21 l0 20
-26 -20 c-59 -47 -160 -35 -194 22 -11 18 -20 48 -20 67 0 68 47 105 147 116
70 8 93 19 93 44 0 51 -82 69 -125 26 -22 -22 -46 -25 -93 -10 -21 6 15 58 57
83 44 25 138 28 181 6z m889 -14 c41 -29 70 -92 71 -148 l0 -43 -136 0 -136 0
7 -27 c17 -71 108 -102 159 -54 30 28 96 30 96 2 0 -11 -14 -33 -30 -50 -68
-68 -197 -66 -266 3 -91 91 -62 282 51 332 47 22 144 14 184 -15z m421 -2 l0
-31 35 31 c29 25 45 31 81 31 37 0 51 -5 76 -30 l30 -30 34 30 c29 25 43 30
84 30 41 0 56 -5 82 -29 l33 -29 3 -166 3 -166 -45 0 -46 0 0 133 c0 152 -9
177 -63 177 -65 0 -77 -30 -77 -191 l0 -119 -45 0 -45 0 0 136 c0 74 -5 144
-10 155 -8 14 -21 19 -50 19 -62 0 -70 -20 -70 -177 l0 -133 -45 0 -45 0 0
195 0 195 40 0 c38 0 40 -1 40 -31z m800 16 c15 -8 38 -27 49 -41 19 -24 21
-40 21 -180 l0 -154 -45 0 c-39 0 -45 3 -45 21 l0 20 -26 -20 c-59 -47 -160
-35 -194 22 -11 18 -20 48 -20 67 0 68 47 105 147 116 70 8 93 19 93 44 0 51
-82 69 -125 26 -22 -22 -46 -25 -93 -10 -21 6 15 58 57 83 44 25 138 28 181 6z
m250 -17 l0 -32 30 29 c65 62 189 37 217 -45 7 -20 12 -94 12 -172 l1 -138
-50 0 -50 0 0 137 c0 157 -7 173 -71 173 -29 0 -42 -6 -58 -26 -19 -24 -21
-40 -21 -155 l0 -129 -45 0 -45 0 0 195 0 195 40 0 c38 0 40 -1 40 -32z
m-2227 -1068 c-15 -22 -36 -40 -45 -40 -23 0 -22 1 3 44 15 26 28 36 46 36
l24 0 -28 -40z m-6238 -5 c0 -22 -31 -33 -47 -17 -17 17 -1 44 24 40 15 -2 23
-10 23 -23z m6710 0 c0 -22 -31 -33 -47 -17 -17 17 -1 44 24 40 15 -2 23 -10
23 -23z m4048 -8 c19 -15 40 -40 45 -57 10 -28 9 -30 -12 -30 -15 0 -27 9 -34
26 -18 38 -76 59 -124 44 -93 -27 -116 -188 -37 -254 49 -42 132 -31 160 20
12 23 49 34 49 14 0 -44 -60 -96 -115 -101 -64 -5 -86 2 -125 37 -101 91 -72
277 50 327 33 14 109 0 143 -26z m-12513 -57 l0 -80 95 0 95 0 0 80 c0 79 0
80 25 80 l25 0 0 -180 0 -180 -25 0 c-25 0 -25 1 -25 80 l0 80 -95 0 -95 0 0
-80 c0 -79 0 -80 -25 -80 l-25 0 0 180 0 180 25 0 c25 0 25 -1 25 -80z m1620
-100 c0 -173 -1 -180 -20 -180 -19 0 -20 7 -20 180 0 173 1 180 20 180 19 0
20 -7 20 -180z m1040 -1 l0 -180 -22 3 c-13 2 -22 9 -20 16 3 16 -13 15 -27
-2 -34 -41 -122 -22 -155 34 -22 39 -23 127 -1 170 29 57 112 74 158 33 16
-15 17 -13 17 45 0 59 1 62 25 62 l25 0 0 -181z m2420 1 c0 -173 -1 -180 -20
-180 -19 0 -20 7 -20 180 0 173 1 180 20 180 19 0 20 -7 20 -180z m1130 0 c0
-173 -1 -180 -20 -180 -14 0 -20 7 -20 22 l0 21 -22 -21 c-50 -45 -126 -33
-161 27 -21 36 -23 131 -2 170 29 57 112 74 158 34 16 -15 17 -13 17 45 0 59
1 62 25 62 l25 0 0 -180z m6980 0 c0 -173 -1 -180 -20 -180 -14 0 -20 7 -20
22 l0 21 -25 -23 c-45 -43 -124 -27 -158 30 -23 38 -22 133 0 171 34 56 111
72 156 32 16 -15 17 -13 17 45 0 59 1 62 25 62 l25 0 0 -180z m650 113 c0 -62
1 -66 15 -46 19 28 59 36 102 22 49 -16 63 -55 63 -174 0 -95 0 -95 -25 -95
l-25 0 0 104 c0 97 -2 106 -22 120 -32 22 -55 20 -83 -9 -23 -22 -25 -32 -25
-120 0 -88 -1 -95 -20 -95 -19 0 -20 7 -20 180 0 173 1 180 20 180 18 0 20 -7
20 -67z m-8290 12 c0 -32 2 -35 30 -35 20 0 30 -5 30 -15 0 -10 -10 -15 -30
-15 l-31 0 3 -97 c3 -94 4 -97 28 -103 14 -3 26 -14 28 -23 3 -13 -4 -17 -31
-17 -55 0 -66 21 -69 135 -3 95 -4 100 -25 103 -13 2 -23 10 -23 17 0 7 10 15
23 17 17 2 23 11 25 36 2 24 8 32 23 32 15 0 19 -7 19 -35z m3070 0 c0 -32 2
-35 30 -35 20 0 30 -5 30 -15 0 -10 -10 -15 -30 -15 l-31 0 3 -97 c3 -94 4
-97 28 -103 14 -3 26 -14 28 -23 3 -13 -4 -17 -31 -17 -55 0 -66 21 -69 135
-3 95 -4 100 -25 103 -13 2 -23 10 -23 17 0 7 10 15 23 17 17 2 23 11 25 36 2
24 8 32 23 32 15 0 19 -7 19 -35z m-8114 -56 c22 -21 24 -30 24 -136 0 -106
-1 -113 -20 -113 -12 0 -20 7 -20 17 0 14 -2 15 -17 1 -46 -41 -126 -28 -147
24 -26 61 2 101 79 113 78 12 85 15 85 34 0 49 -59 66 -104 30 -20 -16 -32
-19 -48 -12 -19 8 -19 9 7 35 43 44 119 47 161 7z m409 7 c0 -13 -8 -20 -30
-22 -52 -5 -65 -34 -65 -140 0 -87 -1 -94 -20 -94 -19 0 -20 7 -20 135 0 128
1 135 20 135 12 0 20 -7 20 -16 0 -13 5 -12 27 6 32 25 68 23 68 -4z m220 10
c41 -18 62 -48 71 -103 l7 -43 -102 0 c-57 0 -101 -4 -101 -10 0 -24 25 -60
50 -70 30 -13 73 -5 91 16 12 15 49 19 49 6 0 -22 -35 -53 -71 -62 -75 -20
-145 23 -158 97 -18 99 29 172 117 182 7 0 28 -5 47 -13z m321 -17 c22 -21 24
-30 24 -136 0 -106 -1 -113 -20 -113 -12 0 -20 7 -20 17 0 14 -2 15 -17 1 -46
-41 -126 -28 -147 24 -26 61 2 101 79 113 78 12 85 15 85 34 0 49 -59 66 -104
30 -20 -16 -32 -19 -48 -12 -19 8 -19 9 7 35 43 44 119 47 161 7z m850 0 c22
-21 24 -30 24 -136 0 -106 -1 -113 -20 -113 -12 0 -20 7 -20 17 0 14 -2 15
-17 1 -28 -25 -60 -30 -98 -18 -41 14 -55 35 -55 84 0 42 23 61 85 71 78 12
85 15 85 34 0 49 -59 66 -104 30 -20 -16 -32 -19 -48 -12 -19 8 -19 9 7 35 43
44 119 47 161 7z m599 17 c102 -43 101 -220 -2 -263 -70 -29 -149 17 -162 94
-18 99 29 172 117 182 7 0 28 -5 47 -13z m944 -14 c13 -10 28 -28 32 -40 12
-31 -22 -30 -55 3 -28 28 -43 30 -79 14 -31 -14 -47 -48 -47 -100 0 -31 7 -47
29 -70 36 -36 64 -37 97 -3 15 14 34 24 45 22 16 -3 17 -6 6 -28 -7 -14 -29
-33 -51 -44 -32 -16 -44 -17 -75 -7 -71 21 -105 87 -90 174 7 41 50 93 83 100
33 8 79 -2 105 -21z m276 14 c107 -45 99 -227 -11 -265 -37 -13 -44 -12 -79 5
-58 28 -76 60 -76 129 0 67 18 100 72 127 41 22 50 22 94 4z m328 -13 c15 -15
19 -14 38 3 30 27 93 25 121 -4 21 -20 23 -34 26 -137 l4 -115 -26 0 -26 0 0
110 c0 109 0 111 -26 122 -21 10 -31 9 -52 -3 -26 -14 -27 -18 -30 -122 -2
-97 -4 -107 -21 -107 -17 0 -20 10 -23 106 -3 91 -6 108 -22 120 -28 20 -43
18 -71 -11 -23 -22 -25 -32 -25 -120 0 -88 -1 -95 -20 -95 -19 0 -20 7 -20
135 0 128 1 135 20 135 12 0 20 -7 20 -17 0 -14 2 -15 18 -1 35 31 80 32 115
1z m465 1 c34 -22 55 -79 50 -136 -6 -59 -30 -96 -75 -115 -41 -17 -75 -11
-103 17 -20 20 -20 20 -20 -50 0 -63 -2 -70 -20 -70 -19 0 -20 7 -20 185 0
178 1 185 20 185 14 0 20 -7 20 -22 0 -19 2 -20 13 -6 32 40 85 45 135 12z
m417 12 c41 -17 61 -47 70 -103 l7 -43 -101 0 c-90 0 -101 -2 -101 -17 1 -60
102 -94 141 -47 12 15 49 20 49 6 0 -22 -35 -53 -71 -62 -52 -14 -99 1 -134
41 -21 26 -25 41 -25 94 0 57 3 68 30 99 28 31 45 40 88 45 7 0 28 -5 47 -13z
m523 -19 c20 -19 22 -29 22 -134 0 -106 -1 -113 -20 -113 -12 0 -20 7 -20 17
0 14 -2 15 -17 1 -28 -25 -60 -30 -98 -18 -41 14 -55 35 -55 84 0 42 23 61 85
71 78 12 85 15 85 34 0 49 -59 66 -104 30 -20 -16 -32 -19 -48 -12 -19 8 -19
9 7 35 15 15 36 29 48 31 38 8 91 -4 115 -26z m597 19 c102 -43 101 -220 -2
-263 -48 -20 -101 -5 -137 38 -22 26 -26 40 -26 93 0 72 21 109 74 132 40 17
49 17 91 0z m494 -14 c13 -10 28 -28 32 -40 12 -31 -22 -30 -55 3 -28 28 -43
30 -79 14 -31 -14 -47 -48 -47 -100 0 -31 7 -47 29 -70 36 -36 64 -37 97 -3
15 14 34 24 45 22 16 -3 17 -6 6 -28 -7 -14 -29 -33 -51 -44 -32 -16 -44 -17
-76 -7 -21 6 -50 25 -64 42 -35 42 -38 142 -4 184 43 55 114 66 167 27z m276
14 c102 -43 101 -220 -2 -263 -48 -20 -101 -5 -137 38 -22 26 -26 40 -26 93 0
72 21 109 74 132 40 17 49 17 91 0z m342 -18 c21 -20 23 -30 23 -135 0 -106
-1 -113 -20 -113 -19 0 -20 7 -20 100 0 87 -3 103 -20 120 -27 27 -56 25 -85
-5 -23 -22 -25 -32 -25 -120 0 -88 -1 -95 -20 -95 -19 0 -20 7 -20 135 0 128
1 135 20 135 12 0 20 -7 20 -17 0 -14 2 -15 18 -1 38 34 91 32 129 -4z m428
18 c41 -17 61 -47 70 -103 l7 -43 -101 0 c-90 0 -101 -2 -101 -17 1 -60 102
-94 141 -47 12 15 49 20 49 6 0 -22 -35 -53 -71 -62 -52 -14 -99 1 -135 43
-24 28 -26 37 -22 98 4 74 20 102 73 125 39 17 49 17 90 0z m910 0 c102 -43
101 -220 -2 -263 -48 -20 -101 -5 -137 38 -22 26 -26 40 -26 93 0 72 21 109
74 132 40 17 49 17 91 0z m481 -17 c28 -26 30 -35 9 -43 -9 -3 -24 3 -35 14
-33 33 -100 19 -100 -21 0 -20 6 -23 93 -54 56 -20 75 -52 57 -96 -24 -56
-128 -74 -175 -29 -49 46 -20 69 35 28 24 -17 35 -20 62 -12 63 18 47 64 -30
84 -54 13 -71 25 -83 57 -30 78 101 134 167 72z m753 3 c13 -10 28 -28 32 -40
12 -31 -22 -30 -55 3 -28 28 -43 30 -79 14 -31 -14 -47 -48 -47 -100 0 -31 7
-47 29 -70 36 -36 64 -37 97 -4 14 14 34 25 45 25 19 0 19 -1 4 -31 -36 -68
-135 -72 -189 -8 -35 42 -38 142 -4 184 43 55 114 66 167 27z m556 4 c0 -13
-8 -20 -30 -22 -52 -5 -65 -34 -65 -140 0 -87 -1 -94 -20 -94 -19 0 -20 7 -20
135 0 128 1 135 20 135 12 0 20 -7 20 -16 0 -13 5 -12 27 6 32 25 68 23 68 -4z
m231 -7 c28 -26 30 -35 9 -43 -9 -3 -24 3 -35 14 -33 33 -100 19 -100 -21 0
-20 6 -23 93 -54 56 -20 75 -52 57 -96 -24 -56 -128 -74 -175 -29 -14 13 -25
29 -25 37 0 20 35 16 55 -7 30 -34 105 -20 105 19 0 25 -16 37 -70 51 -52 14
-69 26 -81 57 -30 78 101 134 167 72z m269 17 c102 -43 101 -220 -2 -263 -48
-20 -101 -5 -137 38 -22 26 -26 40 -26 93 0 72 21 109 74 132 40 17 49 17 91
0z m470 0 c42 -18 63 -49 67 -101 l3 -40 -97 -3 c-85 -2 -98 -5 -98 -20 1 -59
102 -92 141 -46 12 15 49 20 49 6 0 -22 -35 -53 -71 -62 -52 -14 -99 1 -135
43 -24 28 -26 37 -22 98 4 74 20 102 73 125 39 17 49 17 90 0z m332 -18 c21
-20 23 -30 23 -135 0 -106 -1 -113 -20 -113 -19 0 -20 7 -20 100 0 87 -3 103
-20 120 -27 27 -56 25 -85 -5 -23 -22 -25 -32 -25 -120 0 -88 -1 -95 -20 -95
-19 0 -20 7 -20 135 0 128 1 135 20 135 12 0 20 -7 20 -17 0 -14 2 -15 18 -1
38 34 91 32 129 -4z m808 18 c102 -43 101 -220 -2 -263 -48 -20 -101 -5 -137
38 -22 26 -26 40 -26 93 0 72 21 109 74 132 40 17 49 17 91 0z m640 0 c42 -18
63 -49 67 -101 l3 -40 -97 -3 c-85 -2 -98 -5 -98 -20 1 -59 102 -92 141 -46
12 15 49 20 49 6 0 -22 -35 -53 -71 -62 -52 -14 -99 1 -135 43 -24 28 -26 37
-22 98 4 74 20 102 73 125 39 17 49 17 90 0z m280 -10 c0 -13 -8 -20 -30 -22
-52 -5 -65 -34 -65 -140 0 -87 -1 -94 -20 -94 -19 0 -20 7 -20 135 0 128 1
135 20 135 12 0 20 -7 20 -16 0 -13 5 -12 27 6 32 25 68 23 68 -4z m540 10
c102 -43 101 -220 -2 -263 -48 -20 -101 -5 -137 38 -22 26 -26 40 -26 93 0 72
21 109 74 132 40 17 49 17 91 0z m631 -17 c28 -26 30 -35 9 -43 -9 -3 -24 3
-35 14 -23 23 -58 26 -84 7 -29 -21 -16 -50 29 -65 88 -31 97 -36 106 -60 22
-58 -29 -108 -108 -106 -45 1 -93 32 -93 61 0 20 33 16 53 -7 29 -34 107 -20
107 19 0 25 -16 37 -70 51 -52 14 -69 26 -81 57 -30 78 101 134 167 72z m269
17 c42 -18 63 -49 67 -101 l3 -40 -97 -3 c-85 -2 -98 -5 -98 -20 1 -59 102
-92 141 -46 12 15 49 20 49 6 0 -21 -35 -52 -67 -61 -52 -14 -105 2 -138 41
-25 29 -27 38 -23 99 4 74 20 102 73 125 39 17 49 17 90 0z m-13415 -131 c0
-128 -1 -135 -20 -135 -19 0 -20 7 -20 135 0 128 1 135 20 135 19 0 20 -7 20
-135z m300 118 c-1 -10 -34 -61 -75 -113 l-74 -95 77 -5 c63 -4 77 -8 80 -22
3 -16 -7 -18 -107 -18 -94 0 -111 2 -111 16 0 8 34 59 75 112 l75 97 -73 5
c-58 4 -72 8 -75 23 -3 15 7 17 102 17 94 0 106 -2 106 -17z m1229 -83 c18
-55 35 -100 39 -100 4 0 23 45 42 100 30 89 37 100 58 100 19 0 23 -4 17 -17
-4 -10 -29 -77 -55 -150 -72 -195 -78 -203 -136 -203 -17 0 -24 6 -24 20 0 15
7 20 25 20 17 0 29 9 39 28 13 26 11 36 -29 145 -62 168 -60 157 -33 157 21 0
27 -11 57 -100z m4922 50 c17 -27 32 -50 34 -50 2 0 17 23 34 50 20 33 38 50
51 50 11 0 20 -2 20 -5 0 -3 -16 -32 -37 -63 -20 -31 -36 -62 -36 -68 0 -5 19
-38 42 -72 l42 -62 -26 0 c-20 0 -32 11 -56 50 -17 28 -32 50 -34 50 -2 0 -17
-22 -34 -50 -24 -38 -37 -50 -56 -50 -25 0 -25 0 19 69 l44 68 -39 59 c-45 68
-46 74 -19 74 13 0 31 -17 51 -50z m259 -85 c0 -128 -1 -135 -20 -135 -19 0
-20 7 -20 135 0 128 1 135 20 135 19 0 20 -7 20 -135z m1080 42 c0 -107 13
-137 60 -137 54 0 70 31 70 137 0 86 1 93 20 93 19 0 20 -7 20 -135 0 -128 -1
-135 -20 -135 -14 0 -20 7 -20 22 l0 21 -23 -21 c-33 -31 -90 -30 -122 3 -24
23 -25 31 -25 135 0 103 1 110 20 110 19 0 20 -7 20 -93z m750 0 c0 -107 13
-137 60 -137 54 0 70 31 70 137 0 86 1 93 20 93 19 0 20 -7 20 -135 0 -128 -1
-135 -20 -135 -14 0 -20 7 -20 22 l0 21 -23 -21 c-33 -31 -90 -30 -122 3 -24
23 -25 31 -25 135 0 103 1 110 20 110 19 0 20 -7 20 -93z m4180 0 c0 -107 13
-137 60 -137 54 0 70 31 70 137 0 86 1 93 20 93 19 0 20 -7 20 -135 0 -128 -1
-135 -20 -135 -14 0 -20 7 -20 22 l0 21 -23 -21 c-33 -31 -90 -30 -122 3 -24
23 -25 31 -25 135 0 103 1 110 20 110 19 0 20 -7 20 -93z m895 -147 c0 -18 -6
-26 -23 -28 -13 -2 -25 3 -28 12 -10 26 4 48 28 44 17 -2 23 -10 23 -28z
m-13111 -310 c-16 -23 -35 -40 -46 -40 -18 0 -18 1 2 40 16 31 26 40 45 40
l25 0 -26 -40z m754 13 c-2 -10 -14 -20 -28 -22 -29 -4 -40 -17 -40 -48 0 -19
6 -23 30 -23 20 0 30 -5 30 -15 0 -10 -10 -15 -30 -15 l-30 0 0 -120 c0 -113
-1 -120 -20 -120 -18 0 -20 8 -22 118 -3 113 -4 117 -25 120 -13 2 -23 10 -23
17 0 7 10 15 23 17 18 2 23 10 25 40 4 45 31 68 80 68 26 0 33 -4 30 -17z
m-993 -18 c0 -22 -31 -33 -47 -17 -17 17 -1 44 24 40 15 -2 23 -10 23 -23z
m2784 11 c54 -28 66 -97 25 -145 -14 -17 -21 -31 -15 -31 25 0 51 -41 51 -79
0 -74 -72 -120 -157 -100 -39 8 -83 48 -83 75 0 22 30 16 56 -11 44 -48 144
-24 144 35 0 30 -35 59 -80 66 -53 9 -51 36 3 45 48 8 60 20 60 60 0 37 -24
59 -63 59 -31 0 -70 -25 -70 -46 0 -8 -9 -14 -20 -14 -11 0 -20 7 -20 16 0 64
100 105 169 70z m331 -1 c16 -8 34 -24 40 -34 17 -33 12 -83 -12 -108 l-21
-23 26 -20 c48 -38 42 -134 -10 -155 -51 -21 -79 -24 -116 -14 -89 24 -116
102 -56 162 18 18 27 33 20 35 -6 2 -18 17 -27 34 -45 87 62 171 156 123z
m2235 -10 c0 -22 -31 -33 -47 -17 -17 17 -1 44 24 40 15 -2 23 -10 23 -23z
m5596 9 c44 -23 69 -83 69 -172 0 -119 -41 -183 -119 -184 -79 -1 -121 52
-129 163 -11 153 76 247 179 193z m-13121 -154 l0 -160 85 0 c78 0 85 -2 85
-20 0 -19 -7 -20 -110 -20 l-110 0 0 180 0 180 25 0 25 0 0 -160z m930 -20 l0
-180 -25 0 c-17 0 -25 6 -25 17 0 15 -2 15 -17 0 -46 -41 -123 -24 -157 33
-22 39 -23 127 -1 170 29 57 112 74 158 33 16 -15 17 -13 17 45 0 59 1 62 25
62 l25 0 0 -180z m3300 0 c0 -173 -1 -180 -20 -180 -14 0 -20 7 -20 22 l0 21
-22 -21 c-50 -46 -126 -33 -162 28 -22 39 -23 127 -1 170 29 57 112 74 158 33
16 -15 17 -13 17 45 0 59 1 62 25 62 l25 0 0 -180z m1410 113 c0 -63 1 -66 15
-46 21 30 74 39 113 19 40 -21 52 -60 52 -172 0 -94 0 -94 -25 -94 l-25 0 0
104 c0 97 -2 106 -22 120 -32 22 -55 20 -83 -9 -23 -22 -25 -32 -25 -120 0
-88 -1 -95 -20 -95 -19 0 -20 7 -20 180 0 173 1 180 20 180 18 0 20 -7 20 -67z
m1750 -113 c0 -173 -1 -180 -20 -180 -14 0 -20 7 -20 22 l0 21 -22 -21 c-50
-45 -126 -33 -161 27 -21 36 -23 131 -2 170 29 57 112 74 158 34 16 -15 17
-13 17 45 0 59 1 62 25 62 l25 0 0 -180z m1240 0 c0 -173 -1 -180 -20 -180
-14 0 -20 7 -20 22 l0 21 -22 -21 c-50 -45 -126 -33 -161 27 -21 36 -23 131
-2 170 29 57 112 74 158 34 16 -15 17 -13 17 45 0 59 1 62 25 62 l25 0 0 -180z
m1310 0 c0 -173 -1 -180 -20 -180 -19 0 -20 7 -20 180 0 173 1 180 20 180 19
0 20 -7 20 -180z m610 0 c0 -173 -1 -180 -20 -180 -19 0 -20 7 -20 180 0 173
1 180 20 180 19 0 20 -7 20 -180z m1600 0 c0 -173 -1 -180 -20 -180 -14 0 -20
7 -20 22 l0 21 -25 -23 c-45 -43 -124 -27 -158 30 -23 38 -22 133 0 171 34 56
111 72 156 32 16 -15 17 -13 17 45 0 59 1 62 25 62 l25 0 0 -180z m690 0 l0
-180 -25 0 -25 0 0 155 c0 85 -3 155 -6 155 -3 0 -18 -8 -32 -18 -49 -34 -52
-35 -52 -10 0 28 71 78 113 78 l27 0 0 -180z m-4870 125 c0 -32 2 -35 30 -35
20 0 30 -5 30 -15 0 -10 -10 -15 -30 -15 l-31 0 3 -97 c3 -94 4 -97 28 -103
14 -3 26 -14 28 -23 3 -13 -4 -17 -31 -17 -55 0 -66 21 -69 135 -3 95 -4 100
-25 103 -13 2 -23 10 -23 17 0 7 10 15 23 17 17 2 23 11 25 36 2 24 8 32 23
32 15 0 19 -7 19 -35z m-7544 -56 c22 -21 24 -30 24 -136 0 -106 -1 -113 -20
-113 -12 0 -20 7 -20 17 0 14 -2 15 -17 1 -46 -41 -126 -28 -147 24 -26 61 2
101 79 113 78 12 85 15 85 34 0 49 -59 66 -104 30 -20 -16 -32 -19 -48 -12
-19 8 -19 9 7 35 43 44 119 47 161 7z m1039 7 c0 -13 -8 -20 -30 -22 -52 -5
-65 -34 -65 -140 0 -87 -1 -94 -20 -94 -19 0 -20 7 -20 135 0 128 1 135 20
135 12 0 20 -7 20 -16 0 -13 5 -12 27 6 32 25 68 23 68 -4z m251 -7 c22 -21
24 -30 24 -136 0 -106 -1 -113 -20 -113 -12 0 -20 7 -20 17 0 14 -2 15 -17 1
-46 -41 -126 -28 -147 24 -26 61 2 101 79 113 78 12 85 15 85 34 0 49 -59 66
-104 30 -20 -16 -32 -19 -48 -12 -19 8 -19 9 7 35 43 44 119 47 161 7z m293 3
c13 -10 28 -28 32 -40 12 -31 -22 -30 -55 3 -28 28 -43 30 -79 14 -31 -14 -47
-48 -47 -100 0 -31 7 -47 29 -70 36 -36 64 -37 97 -3 15 14 34 24 45 22 16 -3
17 -6 6 -28 -7 -14 -29 -33 -51 -44 -32 -16 -44 -17 -75 -7 -71 21 -105 87
-90 174 7 41 50 93 83 100 33 8 79 -2 105 -21z m406 14 c102 -43 101 -220 -2
-263 -70 -29 -149 17 -162 94 -18 99 29 172 117 182 7 0 28 -5 47 -13z m322 4
c50 -18 58 -50 54 -217 -1 -46 -4 -53 -21 -53 -19 0 -20 7 -20 100 0 87 -3
103 -20 120 -27 27 -56 25 -85 -5 -23 -22 -25 -32 -25 -120 0 -88 -1 -95 -20
-95 -19 0 -20 7 -20 135 0 128 1 135 20 135 12 0 20 -7 20 -17 0 -14 2 -15 18
-1 32 29 56 33 99 18z m958 -4 c41 -17 61 -47 70 -103 l7 -43 -101 0 c-57 0
-101 -4 -101 -10 0 -24 25 -60 50 -70 30 -13 73 -5 91 16 12 15 49 19 49 6 0
-22 -35 -53 -71 -62 -75 -20 -145 23 -158 97 -18 99 29 172 117 182 7 0 28 -5
47 -13z m780 0 c41 -17 61 -47 70 -103 l7 -43 -101 0 c-57 0 -101 -4 -101 -10
0 -24 25 -60 50 -70 30 -13 73 -5 91 16 12 15 49 19 49 6 0 -22 -35 -53 -71
-62 -75 -20 -145 23 -158 97 -18 99 29 172 117 182 7 0 28 -5 47 -13z m1590 0
c102 -43 101 -220 -2 -263 -48 -20 -101 -5 -137 38 -22 26 -26 40 -26 93 0 72
21 109 74 132 40 17 49 17 91 0z m300 -10 c0 -13 -8 -20 -30 -22 -52 -5 -65
-34 -65 -140 0 -87 -1 -94 -20 -94 -19 0 -20 7 -20 135 0 128 1 135 20 135 12
0 20 -7 20 -16 0 -13 5 -12 27 6 32 25 68 23 68 -4z m243 -9 c20 -19 22 -29
22 -134 0 -106 -1 -113 -20 -113 -12 0 -20 7 -20 17 0 14 -2 15 -17 1 -28 -25
-60 -30 -98 -18 -41 14 -55 35 -55 84 0 42 23 61 85 71 78 12 85 15 85 34 0
49 -59 66 -104 30 -20 -16 -32 -19 -48 -12 -19 8 -19 9 7 35 15 15 36 29 48
31 38 8 91 -4 115 -26z m288 2 c28 -26 30 -35 9 -43 -9 -3 -24 3 -35 14 -33
33 -100 19 -100 -21 0 -20 6 -23 93 -54 56 -20 75 -52 57 -96 -24 -56 -128
-74 -175 -29 -49 46 -20 69 35 28 24 -17 35 -20 62 -12 63 18 47 64 -30 84
-54 13 -71 25 -83 57 -30 78 101 134 167 72z m903 3 c13 -10 28 -28 32 -40 12
-31 -22 -30 -55 3 -28 28 -43 30 -79 14 -31 -14 -47 -48 -47 -100 0 -31 7 -47
29 -70 36 -36 64 -37 97 -3 15 14 34 24 45 22 16 -3 17 -6 6 -28 -7 -14 -29
-33 -51 -44 -32 -16 -44 -17 -76 -7 -21 6 -50 25 -64 42 -35 42 -38 142 -4
184 43 55 114 66 167 27z m489 -5 c20 -19 22 -29 22 -134 0 -106 -1 -113 -20
-113 -12 0 -20 7 -20 17 0 14 -2 15 -17 1 -28 -25 -60 -30 -98 -18 -41 14 -55
35 -55 84 0 42 23 61 85 71 78 12 85 15 85 34 0 49 -59 66 -104 30 -44 -34
-77 -7 -36 29 43 37 117 37 158 -1z m620 0 c20 -19 22 -29 22 -134 0 -106 -1
-113 -20 -113 -12 0 -20 7 -20 17 0 14 -2 15 -17 1 -28 -25 -60 -30 -98 -18
-41 14 -55 35 -55 84 0 42 23 61 85 71 78 12 85 15 85 34 0 49 -59 66 -104 30
-44 -34 -77 -7 -36 29 43 37 117 37 158 -1z m278 2 c28 -26 30 -35 9 -43 -9
-3 -24 3 -35 14 -33 33 -100 19 -100 -21 0 -20 6 -23 93 -54 56 -20 75 -52 57
-96 -24 -56 -128 -74 -175 -29 -49 46 -20 69 35 28 24 -17 35 -20 62 -12 63
18 47 64 -30 84 -54 13 -71 25 -83 57 -30 78 101 134 167 72z m442 -2 c20 -19
22 -29 22 -134 0 -106 -1 -113 -20 -113 -12 0 -20 7 -20 17 0 14 -2 15 -17 1
-28 -25 -60 -30 -98 -18 -41 14 -55 35 -55 84 0 42 23 61 85 71 78 12 85 15
85 34 0 49 -59 66 -104 30 -44 -34 -77 -7 -36 29 43 37 117 37 158 -1z m567
19 c102 -43 101 -220 -2 -263 -48 -20 -101 -5 -137 38 -22 26 -26 40 -26 93 0
72 21 109 74 132 40 17 49 17 91 0z m633 -19 c20 -19 22 -29 22 -134 0 -106
-1 -113 -20 -113 -12 0 -20 7 -20 17 0 14 -2 15 -17 1 -28 -25 -60 -30 -98
-18 -41 14 -55 35 -55 84 0 42 23 61 85 71 78 12 85 15 85 34 0 49 -59 66
-104 30 -44 -34 -77 -7 -36 29 43 37 117 37 158 -1z m247 9 c0 -13 -8 -20 -30
-22 -52 -5 -65 -34 -65 -140 0 -87 -1 -94 -20 -94 -19 0 -20 7 -20 135 0 128
1 135 20 135 12 0 20 -7 20 -16 0 -13 5 -12 27 6 32 25 68 23 68 -4z m232 -8
l23 -21 0 21 c0 16 6 22 21 22 20 0 20 -4 17 -159 -3 -140 -5 -162 -22 -180
-41 -46 -134 -51 -186 -12 -20 16 -22 21 -11 35 12 14 16 14 38 -4 31 -24 80
-26 111 -4 17 11 22 25 22 56 0 38 -1 40 -17 25 -46 -40 -129 -24 -157 32 -20
38 -21 123 -2 160 31 59 115 74 163 29z m298 18 c102 -43 101 -220 -2 -263
-48 -20 -101 -5 -137 38 -22 26 -26 40 -26 93 0 72 21 109 74 132 40 17 49 17
91 0z m800 0 c42 -18 63 -49 67 -101 l3 -40 -97 -3 c-85 -2 -98 -5 -98 -20 1
-59 102 -92 141 -46 12 15 49 20 49 6 0 -22 -35 -53 -71 -62 -52 -14 -99 1
-135 43 -24 28 -26 37 -22 98 4 74 20 102 73 125 39 17 49 17 90 0z m1191 -17
c28 -26 30 -35 9 -43 -9 -3 -24 3 -35 14 -33 33 -100 19 -100 -21 0 -20 6 -23
93 -54 56 -20 75 -52 57 -96 -24 -56 -128 -74 -175 -29 -14 13 -25 29 -25 37
0 20 33 16 53 -7 29 -34 107 -20 107 19 0 25 -16 37 -70 51 -52 14 -69 26 -81
57 -30 78 101 134 167 72z m269 17 c42 -18 63 -49 67 -101 l3 -40 -97 -3 c-85
-2 -98 -5 -98 -20 1 -59 102 -92 141 -46 12 15 49 20 49 6 0 -22 -35 -53 -71
-62 -52 -14 -99 1 -135 43 -24 28 -26 37 -22 98 4 74 20 102 73 125 39 17 49
17 90 0z m318 -13 c15 -15 19 -14 38 3 30 27 93 25 121 -4 21 -20 23 -34 27
-137 l3 -115 -26 0 -26 0 0 110 c0 109 0 111 -26 122 -21 10 -31 9 -52 -3 -26
-14 -27 -18 -30 -122 -2 -99 -4 -107 -22 -107 -18 0 -20 7 -20 89 0 107 -10
138 -46 147 -22 6 -32 2 -51 -20 -21 -24 -23 -37 -23 -122 0 -87 -1 -94 -20
-94 -19 0 -20 7 -20 135 0 128 1 135 20 135 12 0 20 -7 20 -17 0 -14 2 -15 18
-1 35 31 80 32 115 1z m455 -6 c20 -19 22 -29 22 -134 0 -106 -1 -113 -20
-113 -12 0 -20 7 -20 17 0 14 -2 15 -17 1 -28 -25 -60 -30 -98 -18 -41 14 -55
35 -55 84 0 42 23 61 85 71 78 12 85 15 85 34 0 49 -59 66 -104 30 -44 -34
-77 -7 -36 29 43 37 117 37 158 -1z m299 1 c21 -20 23 -30 23 -135 0 -106 -1
-113 -20 -113 -19 0 -20 7 -20 104 0 97 -2 106 -22 120 -32 22 -55 20 -83 -9
-23 -22 -25 -32 -25 -120 0 -88 -1 -95 -20 -95 -19 0 -20 7 -20 135 0 128 1
135 20 135 14 0 20 -7 20 -22 1 -21 1 -21 11 -5 24 41 95 44 136 5z m301 -1
c20 -19 22 -29 22 -134 0 -106 -1 -113 -20 -113 -12 0 -20 7 -20 17 0 14 -2
15 -17 1 -28 -25 -60 -30 -98 -18 -41 14 -55 35 -55 84 0 42 23 61 85 71 78
12 85 15 85 34 0 49 -59 66 -104 30 -44 -34 -77 -7 -36 29 43 37 117 37 158
-1z m278 2 c28 -26 30 -35 9 -43 -9 -3 -24 3 -35 14 -23 23 -58 26 -84 7 -29
-21 -16 -50 29 -65 88 -31 97 -36 106 -60 22 -58 -29 -108 -108 -106 -45 1
-93 32 -93 61 0 20 33 16 53 -7 29 -34 107 -20 107 19 0 25 -16 37 -70 51 -52
14 -69 26 -81 57 -30 78 101 134 167 72z m-14446 -72 c0 -107 13 -137 60 -137
54 0 70 31 70 137 0 86 1 93 20 93 19 0 20 -7 20 -135 0 -128 -1 -135 -20
-135 -14 0 -20 7 -20 22 l0 21 -23 -21 c-35 -33 -99 -30 -126 4 -18 23 -21 41
-21 135 0 102 1 109 20 109 19 0 20 -7 20 -93z m1100 -42 c0 -128 -1 -135 -20
-135 -19 0 -20 7 -20 135 0 128 1 135 20 135 19 0 20 -7 20 -135z m1100 42 c0
-107 13 -137 60 -137 54 0 70 31 70 137 0 86 1 93 20 93 19 0 20 -7 20 -135 0
-128 -1 -135 -20 -135 -14 0 -20 7 -20 22 l0 21 -23 -21 c-35 -33 -99 -30
-126 4 -18 23 -21 41 -21 135 0 102 1 109 20 109 19 0 20 -7 20 -93z m4250
-42 c0 -128 -1 -135 -20 -135 -19 0 -20 7 -20 135 0 128 1 135 20 135 19 0 20
-7 20 -135z m8170 -97 c0 -6 -7 -38 -16 -70 -12 -43 -21 -58 -34 -58 -16 0
-17 5 -9 38 5 20 9 52 9 70 0 27 4 32 25 32 14 0 25 -5 25 -12z m-5097 -318
c-15 -22 -36 -40 -45 -40 -23 0 -22 1 3 44 15 26 28 36 46 36 l24 0 -28 -40z
m-7918 -5 c0 -22 -31 -33 -47 -17 -17 17 -1 44 24 40 15 -2 23 -10 23 -23z
m5120 0 c0 -22 -31 -33 -47 -17 -17 17 -1 44 24 40 15 -2 23 -10 23 -23z m410
0 c0 -22 -31 -33 -47 -17 -17 17 -1 44 24 40 15 -2 23 -10 23 -23z m3040 0 c0
-22 -31 -33 -47 -17 -17 17 -1 44 24 40 15 -2 23 -10 23 -23z m1750 0 c0 -22
-31 -33 -47 -17 -17 17 -1 44 24 40 15 -2 23 -10 23 -23z m450 0 c0 -22 -31
-33 -47 -17 -17 17 -1 44 24 40 15 -2 23 -10 23 -23z m-10915 -165 c0 -173 -1
-180 -20 -180 -19 0 -20 7 -20 180 0 173 1 180 20 180 19 0 20 -7 20 -180z
m1070 0 c0 -173 -1 -180 -20 -180 -14 0 -20 7 -20 22 l0 21 -22 -21 c-50 -46
-126 -33 -162 28 -22 39 -23 127 -1 170 29 57 112 74 158 33 16 -15 17 -13 17
45 0 59 1 62 25 62 l25 0 0 -180z m1310 0 c0 -173 -1 -180 -20 -180 -14 0 -20
7 -20 22 l0 21 -22 -21 c-50 -45 -126 -33 -161 27 -21 36 -23 131 -2 170 29
57 112 74 158 34 16 -15 17 -13 17 45 0 59 1 62 25 62 l25 0 0 -180z m880 0
c0 -173 -1 -180 -20 -180 -19 0 -20 7 -20 180 0 173 1 180 20 180 19 0 20 -7
20 -180z m4560 0 c0 -173 -1 -180 -20 -180 -14 0 -20 7 -20 22 l0 21 -25 -23
c-45 -43 -124 -27 -158 30 -23 38 -22 133 0 171 34 56 111 72 156 32 16 -15
17 -13 17 45 0 59 1 62 25 62 l25 0 0 -180z m3420 0 c0 -173 -1 -180 -20 -180
-14 0 -20 7 -20 22 l0 21 -25 -23 c-45 -43 -124 -27 -158 30 -23 38 -22 133 0
171 34 56 111 72 156 32 16 -15 17 -13 17 45 0 59 1 62 25 62 l25 0 0 -180z
m-9540 125 c0 -32 2 -35 30 -35 20 0 30 -5 30 -15 0 -10 -10 -15 -30 -15 l-31
0 3 -97 c3 -94 4 -97 28 -103 14 -3 26 -14 28 -23 3 -13 -4 -17 -31 -17 -55 0
-66 21 -69 135 -3 95 -4 100 -25 103 -13 2 -23 10 -23 17 0 7 10 15 23 17 17
2 23 11 25 36 2 24 8 32 23 32 15 0 19 -7 19 -35z m4120 0 c0 -32 2 -35 30
-35 20 0 30 -5 30 -15 0 -10 -10 -15 -30 -15 l-31 0 3 -97 c3 -94 4 -97 28
-103 14 -3 26 -14 28 -23 3 -13 -4 -17 -31 -17 -55 0 -66 21 -69 135 -3 95 -4
100 -25 103 -13 2 -23 10 -23 17 0 7 10 15 23 17 17 2 23 11 25 36 2 24 8 32
23 32 15 0 19 -7 19 -35z m-7041 -53 c13 -10 28 -28 32 -40 12 -31 -22 -30
-55 3 -28 28 -43 30 -79 14 -31 -14 -47 -48 -47 -100 0 -31 7 -47 29 -70 36
-36 64 -37 97 -3 15 14 34 24 45 22 16 -3 17 -6 6 -28 -7 -14 -29 -33 -51 -44
-32 -16 -44 -17 -75 -7 -71 21 -105 87 -90 174 7 41 50 93 83 100 33 8 79 -2
105 -21z m594 1 c15 -15 19 -14 38 3 30 27 93 25 121 -4 21 -20 23 -34 26
-137 l4 -115 -26 0 -26 0 0 110 c0 109 0 111 -26 122 -21 10 -31 9 -52 -3 -26
-14 -27 -18 -30 -122 -2 -97 -4 -107 -21 -107 -17 0 -20 10 -23 106 -3 91 -6
108 -22 120 -28 20 -43 18 -71 -11 -23 -22 -25 -32 -25 -120 0 -88 -1 -95 -20
-95 -19 0 -20 7 -20 135 0 128 1 135 20 135 12 0 20 -7 20 -17 0 -14 2 -15 18
-1 35 31 80 32 115 1z m465 1 c34 -22 55 -79 50 -136 -6 -59 -30 -96 -75 -115
-41 -17 -75 -11 -103 17 -20 20 -20 20 -20 -50 0 -63 -2 -70 -20 -70 -19 0
-20 7 -20 185 0 178 1 185 20 185 14 0 20 -7 20 -22 0 -19 2 -20 13 -6 32 40
85 45 135 12z m547 12 c41 -17 61 -47 70 -103 l7 -43 -101 0 c-57 0 -101 -4
-101 -10 0 -24 25 -60 50 -70 30 -13 73 -5 91 16 12 15 49 19 49 6 0 -22 -35
-53 -71 -62 -75 -20 -145 23 -158 97 -18 99 29 172 117 182 7 0 28 -5 47 -13z
m311 4 c47 -18 53 -36 54 -157 0 -106 -1 -113 -20 -113 -19 0 -20 7 -20 100 0
87 -3 103 -20 120 -27 27 -56 25 -85 -5 -23 -22 -25 -32 -25 -120 0 -88 -1
-95 -20 -95 -19 0 -20 7 -20 135 0 128 1 135 20 135 12 0 20 -7 20 -17 0 -14
2 -15 18 -1 32 28 58 33 98 18z m629 -4 c107 -45 99 -227 -11 -265 -37 -13
-44 -12 -79 5 -58 28 -76 60 -76 129 0 67 18 100 72 127 41 22 50 22 94 4z
m660 0 c102 -43 101 -220 -2 -263 -48 -20 -101 -5 -137 38 -22 26 -26 40 -26
93 0 72 21 109 74 132 40 17 49 17 91 0z m640 0 c102 -43 101 -220 -2 -263
-48 -20 -101 -5 -137 38 -22 26 -26 40 -26 93 0 72 21 109 74 132 40 17 49 17
91 0z m331 -17 c28 -26 30 -35 9 -43 -9 -3 -24 3 -35 14 -33 33 -100 19 -100
-21 0 -20 6 -23 93 -54 56 -20 75 -52 57 -96 -24 -56 -128 -74 -175 -29 -49
46 -20 69 35 28 24 -17 35 -20 62 -12 63 18 47 64 -30 84 -54 13 -71 25 -83
57 -30 78 101 134 167 72z m549 17 c102 -43 101 -220 -2 -263 -48 -20 -101 -5
-137 38 -22 26 -26 40 -26 93 0 72 21 109 74 132 40 17 49 17 91 0z m331 -17
c28 -26 30 -35 9 -43 -9 -3 -24 3 -35 14 -33 33 -100 19 -100 -21 0 -20 6 -23
93 -54 56 -20 75 -52 57 -96 -24 -56 -128 -74 -175 -29 -49 46 -20 69 35 28
24 -17 35 -20 62 -12 63 18 47 64 -30 84 -54 13 -71 25 -83 57 -30 78 101 134
167 72z m399 7 c0 -13 -8 -20 -30 -22 -52 -5 -65 -34 -65 -140 0 -87 -1 -94
-20 -94 -19 0 -20 7 -20 135 0 128 1 135 20 135 12 0 20 -7 20 -16 0 -13 5
-12 27 6 32 25 68 23 68 -4z m210 10 c41 -17 61 -47 70 -103 l7 -43 -101 0
c-90 0 -101 -2 -101 -17 1 -60 102 -94 141 -47 12 15 49 20 49 6 0 -22 -35
-53 -71 -62 -52 -14 -99 1 -134 41 -21 26 -25 41 -25 93 0 72 21 109 74 132
40 17 49 17 91 0z m322 -18 l23 -21 0 21 c0 15 6 22 20 22 19 0 20 -7 20 -185
l0 -185 -25 0 c-24 0 -25 2 -25 67 0 62 -1 65 -17 50 -45 -40 -122 -24 -156
32 -21 36 -23 131 -3 170 31 59 115 74 163 29z m749 1 c28 -26 30 -35 9 -43
-9 -3 -24 3 -35 14 -33 33 -100 19 -100 -21 0 -20 6 -23 93 -54 56 -20 75 -52
57 -96 -24 -56 -128 -74 -175 -29 -49 46 -20 69 35 28 24 -17 35 -20 62 -12
63 18 47 64 -30 84 -54 13 -71 25 -83 57 -30 78 101 134 167 72z m599 17 c102
-43 101 -220 -2 -263 -48 -20 -101 -5 -137 38 -22 26 -26 40 -26 93 0 72 21
109 74 132 40 17 49 17 91 0z m321 -17 c28 -26 30 -35 9 -43 -9 -3 -24 3 -35
14 -33 33 -100 19 -100 -21 0 -20 6 -23 93 -54 56 -20 75 -52 57 -96 -24 -56
-128 -74 -175 -29 -49 46 -20 69 35 28 24 -17 35 -20 62 -12 63 18 47 64 -30
84 -54 13 -71 25 -83 57 -30 78 101 134 167 72z m442 -2 c20 -19 22 -29 22
-134 0 -106 -1 -113 -20 -113 -12 0 -20 7 -20 17 0 14 -2 15 -17 1 -28 -25
-60 -30 -98 -18 -41 14 -55 35 -55 84 0 42 23 61 85 71 78 12 85 15 85 34 0
49 -59 66 -104 30 -44 -34 -77 -7 -36 29 43 37 117 37 158 -1z m301 5 c13 -10
28 -28 32 -40 12 -31 -22 -30 -55 3 -28 28 -43 30 -79 14 -31 -14 -47 -48 -47
-100 0 -31 7 -47 29 -70 36 -36 64 -37 97 -4 14 14 34 25 45 25 19 0 19 -1 4
-31 -36 -68 -135 -72 -189 -8 -35 42 -38 142 -4 184 43 55 114 66 167 27z
m289 -5 c20 -19 22 -29 22 -134 0 -106 -1 -113 -20 -113 -12 0 -20 7 -20 17 0
14 -2 15 -17 1 -28 -25 -60 -30 -98 -18 -41 14 -55 35 -55 84 0 42 23 61 85
71 78 12 85 15 85 34 0 49 -59 66 -104 30 -44 -34 -77 -7 -36 29 43 37 117 37
158 -1z m597 19 c42 -18 63 -49 67 -101 l3 -40 -97 -3 c-85 -2 -98 -5 -98 -20
1 -59 102 -92 141 -46 12 15 49 20 49 6 0 -22 -35 -53 -71 -62 -52 -14 -99 1
-135 43 -24 28 -26 37 -22 98 4 74 20 102 73 125 39 17 49 17 90 0z m328 -13
c15 -15 19 -14 38 3 30 27 93 25 121 -4 21 -20 23 -34 26 -137 l4 -115 -26 0
-26 0 0 110 c0 109 0 111 -26 122 -21 10 -31 9 -52 -3 -26 -14 -27 -18 -30
-122 -2 -99 -4 -107 -22 -107 -18 0 -20 7 -20 89 0 107 -10 138 -46 147 -22 6
-32 2 -51 -20 -21 -24 -23 -37 -23 -122 0 -87 -1 -94 -20 -94 -19 0 -20 7 -20
135 0 128 1 135 20 135 12 0 20 -7 20 -17 0 -14 2 -15 18 -1 35 31 80 32 115
1z m586 -1 c13 -10 28 -28 32 -40 12 -31 -22 -30 -55 3 -28 28 -43 30 -79 14
-31 -14 -47 -48 -47 -100 0 -31 7 -47 29 -70 36 -36 64 -37 97 -4 14 14 34 25
45 25 19 0 19 -1 4 -31 -36 -68 -135 -72 -189 -8 -35 42 -38 142 -4 184 43 55
114 66 167 27z m276 14 c102 -43 101 -220 -2 -263 -48 -20 -101 -5 -137 38
-22 26 -26 40 -26 93 0 72 21 109 74 132 40 17 49 17 91 0z m321 -17 c28 -26
30 -35 9 -43 -9 -3 -24 3 -35 14 -33 33 -100 19 -100 -21 0 -20 6 -23 93 -54
56 -20 75 -52 57 -96 -24 -56 -128 -74 -175 -29 -14 13 -25 29 -25 37 0 20 35
16 55 -7 30 -34 105 -20 105 19 0 25 -16 37 -70 51 -52 14 -69 26 -81 57 -30
78 101 134 167 72z m419 17 c42 -18 63 -49 67 -101 l3 -40 -97 -3 c-85 -2 -98
-5 -98 -20 1 -59 102 -92 141 -46 12 15 49 20 49 6 0 -22 -35 -53 -71 -62 -52
-14 -99 1 -135 43 -24 28 -26 37 -22 98 4 74 20 102 73 125 39 17 49 17 90 0z
m732 -18 l23 -21 0 21 c0 16 6 22 21 22 20 0 20 -4 17 -159 -3 -140 -5 -162
-22 -180 -42 -46 -140 -52 -185 -10 -17 16 -20 24 -10 35 9 12 15 11 36 -6 31
-24 80 -26 111 -4 17 11 22 25 22 56 0 38 -1 40 -17 25 -46 -40 -129 -24 -157
32 -20 38 -21 123 -2 160 31 59 115 74 163 29z m758 18 c102 -43 101 -220 -2
-263 -48 -20 -101 -5 -137 38 -22 26 -26 40 -26 93 0 72 21 109 74 132 40 17
49 17 91 0z m331 -17 c28 -26 30 -35 9 -43 -9 -3 -24 3 -35 14 -23 23 -58 26
-84 7 -29 -21 -16 -50 29 -65 88 -31 97 -36 106 -60 22 -58 -29 -108 -108
-106 -45 1 -93 32 -93 61 0 20 33 16 53 -7 29 -34 107 -20 107 19 0 25 -16 37
-70 51 -52 14 -69 26 -81 57 -30 78 101 134 167 72z m-12876 -72 c0 -107 13
-137 60 -137 54 0 70 31 70 137 0 86 1 93 20 93 19 0 20 -7 20 -135 0 -128 -1
-135 -20 -135 -14 0 -20 7 -20 22 l0 21 -23 -21 c-35 -33 -99 -30 -126 4 -18
23 -21 41 -21 135 0 102 1 109 20 109 19 0 20 -7 20 -93z m1200 -42 c0 -128
-1 -135 -20 -135 -19 0 -20 7 -20 135 0 128 1 135 20 135 19 0 20 -7 20 -135z
m4810 42 c0 -107 13 -137 60 -137 54 0 70 31 70 137 0 86 1 93 20 93 19 0 20
-7 20 -135 0 -128 -1 -135 -20 -135 -14 0 -20 7 -20 22 l0 21 -23 -21 c-33
-31 -90 -30 -122 3 -24 23 -25 31 -25 135 0 103 1 110 20 110 19 0 20 -7 20
-93z m310 -42 c0 -128 -1 -135 -20 -135 -19 0 -20 7 -20 135 0 128 1 135 20
135 19 0 20 -7 20 -135z m410 0 c0 -128 -1 -135 -20 -135 -19 0 -20 7 -20 135
0 128 1 135 20 135 19 0 20 -7 20 -135z m3040 0 c0 -128 -1 -135 -20 -135 -19
0 -20 7 -20 135 0 128 1 135 20 135 19 0 20 -7 20 -135z m1491 85 c17 -27 32
-50 34 -50 2 0 17 23 34 50 20 33 38 50 51 50 11 0 20 -2 20 -5 0 -3 -16 -32
-37 -63 -20 -31 -36 -62 -36 -68 0 -5 19 -38 42 -72 l42 -62 -26 0 c-20 0 -32
11 -56 50 -17 28 -32 50 -34 50 -2 0 -17 -22 -34 -50 -24 -38 -37 -50 -56 -50
-25 0 -25 0 19 69 l44 68 -39 59 c-45 68 -46 74 -19 74 13 0 31 -17 51 -50z
m259 -85 c0 -128 -1 -135 -20 -135 -19 0 -20 7 -20 135 0 128 1 135 20 135 19
0 20 -7 20 -135z m450 0 c0 -128 -1 -135 -20 -135 -19 0 -20 7 -20 135 0 128
1 135 20 135 19 0 20 -7 20 -135z m1065 -105 c0 -18 -6 -26 -23 -28 -24 -4
-38 18 -28 44 3 9 15 14 28 12 17 -2 23 -10 23 -28z m-9104 -1889 c48 -49 38
-89 -45 -178 -31 -34 -56 -63 -56 -67 0 -3 32 -6 70 -6 56 0 70 -3 70 -15 0
-12 -18 -15 -100 -15 -73 0 -100 3 -100 13 0 6 34 50 75 96 84 94 95 128 50
157 -21 14 -31 15 -51 5 -14 -6 -28 -20 -31 -31 -3 -11 -14 -20 -25 -20 -26 0
-16 36 18 68 37 32 88 30 125 -7z m275 15 c3 -7 -27 -77 -65 -155 -56 -111
-75 -141 -91 -141 -18 0 -13 15 45 130 36 71 65 132 65 135 0 3 -34 5 -75 5
-68 0 -75 2 -75 20 0 19 7 20 95 20 72 0 97 -3 101 -14z m364 -141 c0 -131 -2
-155 -15 -155 -8 0 -15 7 -15 17 0 14 -2 15 -17 1 -30 -25 -52 -29 -88 -14
-59 25 -81 99 -51 171 23 54 86 73 134 39 22 -15 22 -15 22 40 0 43 3 56 15
56 13 0 15 -24 15 -155z m1343 149 c11 -11 -5 -34 -24 -34 -12 0 -19 7 -19 20
0 19 28 28 43 14z m707 -50 c0 -55 0 -55 22 -40 48 34 111 15 134 -39 25 -60
12 -129 -30 -164 -22 -19 -84 -16 -107 5 -17 16 -19 16 -19 1 0 -10 -7 -17
-15 -17 -13 0 -15 24 -15 155 0 131 2 155 15 155 12 0 15 -13 15 -56z m920
-99 c0 -131 -2 -155 -15 -155 -8 0 -15 7 -15 17 0 15 -2 15 -19 -1 -45 -41
-122 -12 -142 53 -33 109 57 203 139 145 22 -15 22 -15 22 40 0 43 3 56 15 56
13 0 15 -24 15 -155z m591 126 c48 -49 38 -89 -45 -178 -31 -34 -56 -63 -56
-67 0 -3 32 -6 70 -6 56 0 70 -3 70 -15 0 -12 -18 -15 -100 -15 -73 0 -100 3
-100 13 0 6 34 50 75 96 84 94 95 128 50 157 -21 14 -31 15 -51 5 -14 -6 -28
-20 -31 -31 -3 -11 -14 -20 -25 -20 -26 0 -16 36 18 68 37 32 88 30 125 -7z
m232 18 c75 -34 88 -208 22 -275 -26 -26 -81 -32 -116 -14 -67 36 -73 214 -9
273 32 29 64 34 103 16z m278 -18 c48 -49 38 -89 -45 -178 -31 -34 -56 -63
-56 -67 0 -3 32 -6 70 -6 56 0 70 -3 70 -15 0 -12 -18 -15 -100 -15 -73 0
-100 3 -100 13 0 6 34 50 75 96 84 94 95 128 50 157 -21 14 -31 15 -51 5 -14
-6 -28 -20 -31 -31 -3 -11 -14 -20 -25 -20 -26 0 -16 36 18 68 37 32 88 30
125 -7z m260 0 c16 -16 29 -37 29 -46 0 -21 -19 -57 -39 -72 -14 -11 -14 -12
1 -13 22 0 48 -38 48 -68 0 -13 -13 -37 -29 -53 -40 -39 -114 -42 -155 -4 -14
13 -26 31 -26 40 0 23 30 18 52 -10 36 -46 118 -24 118 31 0 28 -35 54 -72 54
-39 0 -36 26 4 34 17 3 37 11 45 17 21 18 15 57 -12 75 -21 14 -30 14 -55 4
-17 -7 -30 -19 -30 -26 0 -8 -9 -14 -20 -14 -22 0 -25 17 -7 41 37 48 105 52
148 10z m-3131 -26 c0 -20 5 -25 25 -25 16 0 25 -6 25 -15 0 -9 -9 -15 -25
-15 -26 0 -26 0 -23 -77 3 -70 5 -79 25 -88 35 -15 37 -35 3 -35 -49 0 -60 21
-60 116 0 77 -2 84 -20 84 -11 0 -20 7 -20 15 0 8 9 15 20 15 15 0 20 7 20 25
0 16 6 25 15 25 9 0 15 -9 15 -25z m-969 -54 c21 -22 29 -39 29 -65 l0 -36
-80 0 c-87 0 -100 -10 -60 -50 24 -24 67 -26 91 -4 11 10 25 14 35 10 16 -6
15 -10 -8 -33 -20 -19 -36 -26 -67 -26 -52 0 -86 23 -101 69 -40 119 78 217
161 135z m337 13 c24 -17 30 -44 8 -44 -7 0 -19 7 -26 15 -24 29 -85 13 -78
-21 2 -12 19 -24 49 -34 58 -19 79 -36 79 -64 0 -26 -35 -61 -68 -69 -46 -11
-112 22 -112 57 0 12 38 5 50 -9 14 -16 57 -20 78 -6 28 17 8 44 -47 62 -57
18 -71 31 -71 66 0 53 87 83 138 47z m243 -13 c21 -22 29 -39 29 -65 l0 -36
-80 0 c-87 0 -100 -10 -60 -50 24 -24 67 -26 91 -4 11 10 25 14 35 10 16 -6
15 -10 -8 -33 -20 -19 -36 -26 -67 -26 -52 0 -86 23 -101 69 -40 119 78 217
161 135z m119 12 c0 -15 1 -15 18 0 46 42 141 -5 143 -70 3 -81 -16 -126 -61
-142 -33 -11 -78 0 -92 22 -4 7 -8 -16 -8 -50 0 -56 -2 -63 -20 -63 -19 0 -20
7 -20 160 0 153 1 160 20 160 12 0 20 -7 20 -17z m410 -98 c0 -108 -1 -115
-20 -115 -19 0 -20 7 -20 115 0 108 1 115 20 115 19 0 20 -7 20 -115z m221 86
c21 -22 29 -39 29 -65 l0 -36 -80 0 c-87 0 -100 -10 -60 -50 24 -24 67 -26 91
-4 11 10 25 14 35 10 16 -6 15 -10 -8 -33 -20 -19 -36 -26 -67 -26 -52 0 -86
23 -101 69 -40 119 78 217 161 135z m119 13 c0 -14 1 -14 16 0 19 20 64 21 89
2 17 -12 22 -12 39 0 27 19 75 18 98 -3 15 -13 18 -32 18 -115 0 -80 -3 -98
-15 -98 -12 0 -15 16 -15 84 0 89 -11 116 -50 116 -39 0 -50 -27 -50 -116 0
-77 -2 -84 -20 -84 -18 0 -20 7 -20 88 0 90 -8 112 -41 112 -37 0 -49 -27 -49
-116 0 -77 -2 -84 -20 -84 -19 0 -20 7 -20 115 0 108 1 115 20 115 12 0 20 -7
20 -16z m630 6 c0 -7 6 -7 19 0 29 15 61 12 61 -5 0 -8 -8 -15 -18 -15 -10 0
-28 -7 -40 -16 -20 -14 -22 -24 -22 -100 0 -77 -2 -84 -20 -84 -19 0 -20 7
-20 115 0 108 1 115 20 115 11 0 20 -5 20 -10z m271 -19 c21 -22 29 -39 29
-65 l0 -36 -80 0 c-87 0 -100 -10 -60 -50 24 -24 67 -26 91 -4 11 10 25 14 35
10 16 -6 15 -10 -7 -32 -19 -19 -37 -25 -67 -26 -55 -1 -88 23 -103 71 -35
118 81 213 162 132z m620 0 c21 -22 29 -39 29 -65 l0 -36 -80 0 c-87 0 -100
-10 -60 -50 24 -24 67 -26 91 -4 11 10 25 14 35 10 16 -6 15 -10 -7 -32 -19
-19 -37 -25 -67 -26 -55 -1 -88 23 -103 71 -35 118 81 213 162 132z m-10885
-2062 c-20 -62 -36 -116 -36 -121 0 -5 26 5 58 22 87 48 229 100 270 99 37 -1
37 -1 -8 -9 -63 -11 -172 -53 -257 -98 l-73 -38 -50 -103 c-28 -57 -49 -105
-47 -107 2 -2 81 49 175 113 95 63 175 113 179 110 3 -3 -21 -23 -53 -44 -33
-21 -124 -84 -204 -140 -125 -88 -150 -110 -184 -163 -32 -50 -37 -63 -25 -71
39 -25 117 0 223 70 38 25 85 57 105 70 69 46 226 188 269 244 52 67 66 125
33 134 -22 6 -29 23 -9 23 19 0 48 -32 48 -52 0 -41 -53 -119 -137 -202 -111
-109 -239 -201 -369 -267 -86 -43 -109 -50 -149 -48 l-47 3 -60 -84 c-59 -84
-145 -180 -160 -180 -5 0 21 35 57 78 69 81 217 293 210 300 -2 3 -46 -27 -97
-65 -120 -89 -192 -135 -248 -156 -75 -28 -124 -19 -103 18 27 48 182 199 291
284 148 114 298 215 310 207 7 -4 16 12 47 89 6 17 19 59 28 95 19 81 38 129
44 113 2 -6 -12 -62 -31 -124z m1219 1 c3 -5 -5 -21 -20 -34 -45 -42 -287
-222 -395 -294 -108 -72 -199 -159 -287 -272 -55 -71 -77 -109 -69 -117 6 -6
111 53 136 76 10 9 45 38 78 65 33 27 82 70 107 97 81 85 235 184 235 151 0
-4 -56 -49 -125 -101 -108 -81 -147 -121 -117 -121 42 1 215 87 335 168 37 25
248 153 461 280 38 22 73 39 78 36 14 -9 1 -20 -56 -53 -65 -36 -211 -157
-282 -232 -55 -59 -258 -330 -400 -532 -212 -305 -504 -636 -680 -769 -56 -43
-182 -118 -197 -118 -19 0 -3 19 25 31 106 44 336 240 478 409 158 187 185
222 390 510 222 311 294 404 390 504 96 100 95 100 -125 -37 -88 -55 -211
-127 -274 -159 -99 -52 -120 -59 -154 -55 -37 5 -46 1 -106 -47 -105 -84 -174
-126 -203 -126 -36 0 -36 20 1 73 30 44 120 156 158 197 13 13 21 25 20 26 -2
2 -37 -10 -78 -27 -52 -22 -86 -29 -114 -27 -35 4 -49 -2 -109 -44 -43 -29
-80 -48 -97 -48 -15 0 -49 -14 -74 -31 -50 -33 -127 -50 -139 -30 -14 23 4 51
32 50 24 -2 24 -2 5 -6 -32 -6 -29 -30 4 -36 37 -7 129 53 181 119 36 46 111
114 126 114 21 0 -3 -35 -59 -90 -36 -34 -64 -65 -61 -67 9 -9 72 31 139 89
38 33 72 57 75 54 3 -3 -2 -14 -11 -24 -10 -10 -17 -22 -17 -27 0 -18 95 7
172 46 67 34 110 67 237 186 86 80 183 164 216 186 84 57 155 81 170 57z
m17767 -235 c38 -12 70 -32 95 -57 l38 -39 0 -95 0 -94 195 -2 c166 -1 182 -2
105 -9 -49 -4 -141 -7 -202 -8 l-112 -1 -15 -29 c-66 -127 -149 -211 -263
-266 -87 -42 -127 -44 -173 -10 -19 14 -40 25 -48 25 -7 0 -42 -27 -76 -60
-102 -98 -102 -83 4 122 44 85 80 160 80 167 0 25 -57 -3 -102 -50 -44 -46
-247 -313 -353 -464 -60 -85 -185 -247 -200 -257 -37 -27 -33 16 12 115 20 45
94 196 164 335 87 171 122 251 111 248 -9 -3 -45 -12 -80 -21 -35 -9 -77 -22
-95 -30 -58 -25 -265 -85 -294 -85 -16 0 -38 6 -48 14 -18 13 -18 14 4 50 49
79 293 245 536 364 158 78 178 86 260 113 39 12 75 25 80 29 6 3 26 7 44 9 19
1 37 4 40 7 13 13 238 -3 293 -21z m-10569 -1016 c15 -16 27 -34 27 -39 0 -19
-28 -10 -44 15 -12 19 -25 25 -52 25 -49 0 -70 -14 -84 -56 -34 -103 66 -193
134 -119 24 26 46 33 46 14 0 -6 -13 -24 -29 -40 -24 -23 -38 -29 -74 -29 -54
0 -91 26 -107 76 -24 73 4 154 63 180 43 18 86 9 120 -27z m587 21 c0 -21 -24
-28 -35 -10 -8 14 3 30 21 30 8 0 14 -9 14 -20z m150 6 c0 -8 -10 -16 -22 -18
-31 -4 -36 -35 -7 -40 33 -4 36 -28 5 -28 -26 0 -26 0 -26 -85 0 -69 -3 -85
-15 -85 -12 0 -15 16 -15 85 0 69 -3 85 -15 85 -8 0 -15 7 -15 15 0 8 7 15 15
15 8 0 15 7 15 16 0 32 20 54 50 54 19 0 30 -5 30 -14z m70 -6 c0 -21 -24 -28
-35 -10 -8 14 3 30 21 30 8 0 14 -9 14 -20z m620 -120 c0 -109 -2 -130 -15
-130 -8 0 -15 5 -15 12 0 9 -3 9 -12 0 -7 -7 -29 -12 -49 -12 -29 0 -43 6 -58
26 -38 48 -23 141 26 163 33 15 53 14 75 -6 17 -15 18 -14 18 30 0 35 4 47 15
47 13 0 15 -21 15 -130z m-960 90 c0 -13 7 -20 20 -20 11 0 20 -7 20 -15 0 -8
-9 -15 -20 -15 -18 0 -20 -7 -20 -66 0 -57 3 -67 19 -71 34 -9 34 -33 1 -33
-39 0 -50 23 -50 104 0 52 -3 66 -15 66 -8 0 -15 7 -15 15 0 8 7 15 15 15 8 0
15 9 15 20 0 11 7 20 15 20 8 0 15 -9 15 -20z m-277 -31 c26 -12 47 -47 47
-79 0 -18 -7 -20 -70 -20 -74 0 -84 -8 -56 -45 15 -21 73 -25 86 -6 4 7 16 11
26 9 18 -3 17 -5 -4 -26 -31 -31 -94 -30 -127 3 -37 37 -35 106 4 146 31 31
55 36 94 18z m122 1 c4 -7 12 -7 25 0 26 14 50 12 50 -3 0 -7 -15 -17 -32 -22
l-33 -10 -3 -77 c-2 -60 -6 -78 -17 -78 -12 0 -15 19 -15 100 0 91 8 118 25
90z m275 -90 c0 -82 -3 -100 -15 -100 -12 0 -15 18 -15 100 0 82 3 100 15 100
12 0 15 -18 15 -100z m220 0 c0 -82 -3 -100 -15 -100 -12 0 -15 18 -15 100 0
82 3 100 15 100 12 0 15 -18 15 -100z m197 73 c7 -9 13 -20 13 -25 0 -14 -27
-9 -40 7 -32 39 -90 1 -90 -60 0 -59 53 -92 89 -56 37 37 59 17 24 -21 -25
-27 -88 -24 -118 7 -38 37 -35 106 5 147 27 26 36 30 68 24 20 -3 43 -13 49
-23z m184 8 c21 -17 24 -30 27 -99 l4 -79 -66 -1 c-72 -1 -96 12 -96 52 0 31
27 53 78 61 37 6 43 10 40 28 -4 28 -41 34 -73 13 -33 -22 -46 1 -15 26 29 23
72 23 101 -1z m426 4 c27 -19 47 -78 38 -113 -17 -71 -100 -97 -150 -47 -37
37 -35 106 4 146 33 33 74 38 108 14z m211 -1 c8 -14 10 -14 21 0 21 25 60 19
92 -13 23 -24 29 -38 29 -74 0 -62 -29 -97 -79 -97 -20 0 -42 5 -49 12 -9 9
-12 2 -12 -35 0 -35 -4 -47 -15 -47 -13 0 -15 22 -15 135 0 128 7 157 28 119z
m319 1 c27 -19 47 -78 38 -113 -17 -71 -100 -97 -150 -47 -37 37 -35 106 4
146 33 33 74 38 108 14z m108 5 c4 -7 12 -7 25 0 26 14 50 12 50 -3 0 -7 -15
-17 -32 -22 l-33 -10 -3 -77 c-2 -60 -6 -78 -17 -78 -12 0 -15 19 -15 100 0
91 8 118 25 90z m-2282 -580 c63 -24 127 -84 159 -149 34 -68 32 -178 -4 -247
-31 -60 -84 -109 -147 -138 -39 -17 -70 -21 -213 -24 l-166 -4 -7 -26 c-40
-165 -47 -172 -165 -172 -66 0 -90 3 -90 13 1 6 23 100 49 207 l49 195 237 5
c220 5 238 6 251 24 22 31 18 82 -8 100 -19 13 -58 16 -231 16 -118 0 -227 5
-252 11 -64 16 -97 56 -103 123 -8 93 -31 86 297 86 266 0 295 -2 344 -20z
m-4553 -30 c0 -20 -7 -20 -3395 -20 -3388 0 -3395 0 -3395 20 0 20 7 20 3395
20 3388 0 3395 0 3395 -20z m18070 0 c0 -20 -7 -20 -3395 -20 -3388 0 -3395 0
-3395 20 0 20 7 20 3395 20 3388 0 3395 0 3395 -20z m-12072 -191 c6 -50 -56
-78 -81 -37 -8 12 -7 24 1 43 10 22 18 26 45 23 26 -2 33 -8 35 -29z m-787
-17 c33 -37 38 -85 14 -132 -21 -41 -68 -62 -147 -68 l-67 -5 -7 -41 c-10 -62
-20 -76 -58 -76 -18 0 -35 2 -38 5 -3 3 7 67 22 143 15 75 31 154 34 175 l7
39 105 -4 c105 -3 106 -3 135 -36z m659 31 c0 -27 -65 -330 -73 -340 -11 -15
-63 -17 -72 -3 -4 7 -12 7 -25 0 -10 -5 -36 -10 -57 -10 -75 0 -122 87 -94
172 27 82 116 120 185 80 l34 -20 12 64 12 64 39 0 c22 0 39 -3 39 -7z m457
-15 c-3 -13 -17 -84 -32 -158 -33 -171 -37 -180 -74 -180 -16 0 -33 5 -36 10
-4 7 -12 7 -25 0 -29 -16 -93 -11 -116 8 -31 25 -44 55 -44 102 0 111 107 183
195 132 27 -17 35 -18 35 -7 0 8 5 37 11 65 l11 50 40 0 c37 0 40 -2 35 -22z
m591 10 c5 -7 18 -39 28 -70 10 -32 20 -58 23 -58 3 0 28 32 54 70 47 69 49
70 92 70 24 0 46 -4 49 -9 3 -4 -32 -57 -78 -117 -73 -94 -86 -116 -96 -169
-13 -67 -20 -75 -67 -75 -37 0 -38 2 -22 82 11 54 10 60 -30 162 -22 59 -41
111 -41 116 0 15 76 12 88 -2z m-1437 -114 c24 -23 29 -36 29 -76 l0 -48 -95
0 c-99 0 -113 -7 -70 -36 20 -13 31 -14 57 -5 28 10 34 8 55 -11 l24 -23 -20
-16 c-60 -49 -178 -22 -207 47 -29 70 8 158 81 190 46 22 111 12 146 -22z
m1087 -9 c93 -100 -20 -262 -158 -225 -116 31 -122 190 -10 248 64 33 123 25
168 -23z m215 34 c37 -10 37 -10 22 -39 -13 -26 -18 -28 -55 -23 -52 7 -53
-10 0 -37 119 -61 52 -187 -85 -158 -58 13 -71 29 -50 61 16 24 18 25 50 11
19 -8 41 -14 50 -14 26 0 16 27 -15 40 -59 24 -89 93 -57 132 29 37 73 46 140
27z m484 -14 c19 -13 22 -13 27 0 3 9 18 15 36 15 37 0 38 -7 9 -153 l-22
-108 -51 2 c-28 2 -61 -1 -74 -5 -30 -10 -88 10 -107 37 -19 27 -19 100 -1
135 39 75 131 114 183 77z m-1287 -12 c-1 -5 -11 -57 -23 -118 l-23 -110 -33
-3 c-19 -2 -37 0 -42 5 -6 7 21 175 36 221 5 13 85 18 85 5z m-10122 -88 c-15
-22 -31 -35 -45 -35 -22 0 -22 0 -6 35 13 28 23 35 45 35 l28 0 -22 -35z
m1850 0 c-15 -22 -31 -35 -45 -35 -22 0 -22 0 -6 35 13 28 23 35 45 35 l28 0
-22 -35z m16072 0 c0 -25 -36 -37 -54 -19 -9 8 -16 17 -16 19 0 2 7 11 16 19
18 18 54 6 54 -19z m560 0 c0 -25 -36 -37 -54 -19 -9 8 -16 17 -16 19 0 2 7
11 16 19 18 18 54 6 54 -19z m1530 0 c0 -25 -36 -37 -54 -19 -9 8 -16 17 -16
19 0 2 7 11 16 19 18 18 54 6 54 -19z m178 13 c28 -10 36 -10 39 0 7 20 33 14
33 -8 0 -28 -45 -48 -71 -32 -23 15 -49 16 -49 2 0 -5 -9 -10 -20 -10 -14 0
-18 5 -13 18 9 24 24 42 36 42 6 0 26 -6 45 -12z m-20704 -27 c37 -35 37 -112
0 -146 l-25 -23 30 -54 c17 -30 31 -58 31 -61 0 -4 -13 -7 -29 -7 -26 0 -34 8
-62 60 -27 52 -36 60 -60 60 -29 0 -29 -1 -29 -60 l0 -60 -30 0 -30 0 0 161 0
161 89 -4 c78 -3 93 -6 115 -27z m706 -131 l0 -160 -30 0 -30 0 0 160 0 160
30 0 30 0 0 -160z m415 138 c34 -27 65 -92 65 -138 0 -47 -31 -111 -66 -139
-25 -20 -38 -22 -93 -19 -56 4 -67 8 -92 36 -71 79 -54 226 31 269 41 21 123
16 155 -9z m16686 -16 c36 -40 38 -72 6 -72 -14 0 -32 12 -45 30 -18 23 -30
30 -58 30 -67 0 -110 -78 -84 -154 23 -71 101 -90 142 -36 13 18 31 30 45 30
33 0 30 -32 -6 -72 -28 -31 -33 -33 -101 -33 -68 0 -73 2 -100 32 -71 79 -59
213 23 264 25 16 45 19 91 16 51 -3 63 -8 87 -35z m149 -17 c0 -56 8 -67 30
-40 7 9 29 15 50 15 30 0 43 -6 59 -26 18 -23 21 -41 21 -120 l0 -94 -30 0
-29 0 -3 93 -3 92 -28 3 c-48 6 -57 -11 -57 -104 l0 -84 -30 0 -30 0 0 160 0
160 25 0 c24 0 25 -3 25 -55z m1976 22 c36 -42 34 -109 -5 -148 -26 -25 -37
-29 -85 -29 l-56 0 0 -55 c0 -54 0 -55 -30 -55 l-30 0 0 161 0 161 91 -4 c85
-3 92 -5 115 -31z m-1106 -17 c0 -25 4 -30 25 -30 33 0 35 -37 3 -42 -21 -3
-23 -9 -26 -71 -3 -64 -2 -68 23 -77 15 -6 25 -17 25 -30 0 -16 -6 -20 -32
-20 -18 0 -38 4 -45 8 -21 13 -33 61 -33 128 0 50 -3 64 -15 64 -8 0 -15 9
-15 20 0 11 7 20 15 20 9 0 15 9 15 23 0 30 7 37 37 37 19 0 23 -5 23 -30z
m1530 0 c0 -25 4 -30 25 -30 33 0 35 -37 3 -42 -21 -3 -23 -9 -26 -71 -3 -64
-2 -68 23 -77 15 -6 25 -17 25 -30 0 -16 -6 -20 -32 -20 -18 0 -38 4 -45 8
-21 13 -33 61 -33 128 0 50 -3 64 -15 64 -8 0 -15 9 -15 20 0 11 7 20 15 20 9
0 15 9 15 23 0 30 7 37 37 37 19 0 23 -5 23 -30z m-20088 -44 c27 -20 38 -62
38 -147 l0 -79 -30 0 c-22 0 -30 5 -30 18 0 11 -3 13 -8 5 -11 -18 -57 -32
-83 -26 -38 9 -59 33 -59 68 0 42 24 63 90 75 61 12 65 14 56 35 -9 25 -37 30
-68 12 -61 -35 -94 -9 -42 32 31 24 109 28 136 7z m160 -78 l3 -93 28 -3 c48
-6 57 11 57 104 l0 84 30 0 30 0 0 -120 0 -120 -30 0 c-21 0 -30 5 -30 17 0
15 -1 15 -18 0 -30 -27 -87 -22 -111 9 -18 23 -21 41 -21 120 l0 94 30 0 29 0
3 -92z m887 -2 c28 -97 27 -98 62 22 20 68 23 72 50 72 16 0 29 -3 29 -7 -1
-26 -101 -281 -118 -300 -14 -16 -31 -23 -56 -23 -20 0 -36 4 -36 9 0 23 14
41 31 41 38 0 37 29 -2 139 -20 58 -41 114 -44 124 -7 16 -3 18 25 15 33 -3
34 -5 59 -92z m353 80 c27 -20 38 -62 38 -147 l0 -79 -30 0 c-22 0 -30 5 -30
18 0 11 -3 13 -8 5 -11 -18 -57 -32 -83 -26 -38 9 -59 33 -59 68 0 42 24 63
90 75 61 12 65 14 56 35 -9 25 -37 30 -68 12 -61 -35 -94 -9 -42 32 31 24 109
28 136 7z m148 -3 c0 -15 1 -15 18 0 10 10 31 17 45 17 22 0 27 -5 27 -25 0
-21 -5 -25 -28 -25 -44 0 -52 -16 -52 -107 l0 -83 -30 0 -30 0 0 120 0 120 25
0 c17 0 25 -6 25 -17z m320 -2 c0 -10 -25 -51 -55 -90 -30 -39 -55 -73 -55
-76 0 -3 25 -5 55 -5 52 0 55 -1 55 -25 0 -25 0 -25 -95 -25 -90 0 -95 1 -95
21 0 12 25 52 55 90 30 37 55 70 55 73 0 4 -25 6 -55 6 -52 0 -55 1 -55 25 0
25 0 25 95 25 87 0 95 -2 95 -19z m142 -73 l3 -93 28 -3 c48 -6 57 11 57 104
l0 84 30 0 30 0 0 -120 0 -120 -30 0 c-21 0 -30 5 -30 17 0 15 -1 15 -18 0
-30 -27 -87 -22 -111 9 -18 23 -21 41 -21 120 l0 94 30 0 29 0 3 -92z m268 72
l0 -20 20 20 c31 31 93 27 119 -6 18 -23 21 -41 21 -120 l0 -94 -30 0 -30 0 0
79 c0 98 -5 111 -39 111 -43 0 -51 -16 -51 -107 l0 -83 -30 0 -30 0 0 120 0
120 25 0 c18 0 25 -5 25 -20z m15690 3 c0 -15 1 -15 18 0 10 10 31 17 45 17
22 0 27 -5 27 -25 0 -21 -5 -25 -28 -25 -44 0 -52 -16 -52 -107 l0 -83 -30 0
-30 0 0 120 0 120 25 0 c17 0 25 -6 25 -17z m200 -103 l0 -120 -30 0 -30 0 0
120 0 120 30 0 30 0 0 -120z m226 95 c14 -14 22 -30 19 -35 -9 -15 -41 -12
-55 5 -16 19 -54 19 -70 0 -17 -21 -6 -32 50 -45 60 -15 80 -32 80 -70 0 -42
-40 -70 -100 -70 -50 0 -100 28 -100 56 0 19 56 19 64 -1 6 -18 57 -20 73 -4
19 19 3 38 -35 45 -71 13 -92 31 -92 81 0 42 30 63 93 63 38 0 53 -5 73 -25z
m334 -95 l0 -120 -30 0 -30 0 0 120 0 120 30 0 30 0 0 -120z m223 106 c25 -19
37 -69 37 -153 l0 -73 -30 0 c-21 0 -30 5 -30 17 0 15 -1 15 -18 0 -11 -10
-35 -17 -57 -17 -48 0 -75 23 -75 65 0 42 26 64 89 74 60 9 69 16 55 39 -14
23 -57 27 -74 8 -7 -9 -21 -16 -31 -16 -31 0 -34 22 -5 47 31 27 109 32 139 9z
m157 -8 l0 -22 20 22 c31 33 92 30 119 -4 18 -23 21 -41 21 -120 l0 -94 -30 0
-30 0 0 79 c0 98 -5 111 -39 111 -43 0 -51 -16 -51 -107 l0 -83 -30 0 -30 0 0
120 0 120 25 0 c19 0 25 -5 25 -22z m813 8 c25 -19 37 -69 37 -153 l0 -73 -30
0 c-21 0 -30 5 -30 17 0 15 -1 15 -18 0 -11 -10 -35 -17 -57 -17 -48 0 -75 23
-75 65 0 42 26 64 89 74 60 9 69 16 55 39 -14 23 -57 27 -74 8 -7 -9 -21 -16
-31 -16 -31 0 -34 22 -5 47 31 27 109 32 139 9z m337 -106 l0 -120 -30 0 -30
0 0 120 0 120 30 0 30 0 0 -120z m120 98 l0 -21 23 21 c34 32 89 30 116 -4 18
-23 21 -41 21 -120 l0 -94 -30 0 -29 0 -3 93 -3 92 -28 3 c-48 6 -57 -11 -57
-104 l0 -84 -30 0 -30 0 0 120 0 120 25 0 c19 0 25 -5 25 -22z m402 2 c59 -46
63 -144 8 -192 -43 -39 -116 -40 -154 -1 -50 50 -49 139 4 186 38 34 104 38
142 7z m-3022 -760 c17 -11 5 -26 -25 -32 -13 -2 -21 -12 -23 -31 -3 -23 0
-27 22 -27 16 0 26 -6 26 -15 0 -9 -9 -15 -25 -15 l-25 0 0 -105 c0 -98 -1
-105 -20 -105 -19 0 -20 7 -20 105 0 98 -1 105 -20 105 -11 0 -20 7 -20 15 0
8 9 15 20 15 15 0 20 7 20 28 0 28 20 54 50 65 22 8 23 8 40 -3z m-20252 -23
c4 -20 -25 -34 -40 -19 -15 15 -1 44 19 40 10 -2 19 -11 21 -21z m-187 -10
c43 -29 69 -80 69 -137 0 -57 -26 -108 -69 -137 -28 -19 -48 -23 -107 -23
l-74 0 0 160 0 160 74 0 c59 0 79 -4 107 -23z m1919 -137 c0 -153 -1 -160 -20
-160 -12 0 -20 7 -20 17 0 14 -2 15 -17 1 -74 -64 -174 12 -159 121 12 85 91
129 154 85 22 -15 22 -15 22 40 0 49 2 56 20 56 19 0 20 -7 20 -160z m520 0
c0 -153 -1 -160 -20 -160 -19 0 -20 7 -20 160 0 153 1 160 20 160 19 0 20 -7
20 -160z m693 130 c41 -36 54 -70 27 -70 -10 0 -25 11 -34 25 -24 37 -62 49
-108 35 -47 -13 -70 -54 -70 -120 0 -66 23 -107 70 -120 46 -14 84 -2 108 35
9 14 24 25 34 25 27 0 14 -34 -27 -70 -28 -25 -42 -30 -87 -30 -89 0 -136 55
-136 160 0 104 48 159 137 160 44 0 58 -5 86 -30z m1767 -130 c0 -153 -1 -160
-20 -160 -12 0 -20 7 -20 17 0 14 -2 15 -17 1 -74 -64 -174 12 -159 121 12 85
91 129 154 85 22 -15 22 -15 22 40 0 49 2 56 20 56 19 0 20 -7 20 -160z m671
137 c92 -61 92 -213 0 -274 -28 -19 -48 -23 -107 -23 l-74 0 0 160 0 160 74 0
c59 0 79 -4 107 -23z m1569 -137 c0 -153 -1 -160 -20 -160 -19 0 -20 7 -20
160 0 153 1 160 20 160 19 0 20 -7 20 -160z m110 0 c0 -153 -1 -160 -20 -160
-19 0 -20 7 -20 160 0 153 1 160 20 160 19 0 20 -7 20 -160z m10984 139 c14
-11 33 -34 41 -50 14 -27 14 -29 -3 -29 -10 0 -28 13 -40 30 -62 83 -177 25
-177 -90 0 -115 115 -173 177 -90 12 17 30 30 40 30 17 0 17 -2 3 -29 -24 -48
-62 -71 -114 -71 -90 0 -141 58 -141 160 0 67 21 115 62 140 45 27 117 27 152
-1z m316 6 c0 -12 -15 -15 -75 -15 l-75 0 0 -55 0 -55 70 0 c63 0 70 -2 70
-20 0 -18 -7 -20 -70 -20 l-70 0 0 -55 0 -55 75 0 c60 0 75 -3 75 -15 0 -12
-17 -15 -95 -15 l-95 0 0 160 0 160 95 0 c78 0 95 -3 95 -15z m310 -23 c42
-42 56 -94 45 -164 -5 -30 -19 -54 -45 -80 -33 -34 -43 -38 -86 -38 -93 0
-144 56 -144 160 0 104 51 160 144 160 43 0 53 -4 86 -38z m864 17 c14 -11 33
-34 41 -50 14 -27 14 -29 -3 -29 -10 0 -28 13 -40 30 -62 83 -177 25 -177 -90
0 -115 115 -173 177 -90 12 17 30 30 40 30 17 0 17 -2 3 -29 -24 -48 -62 -71
-114 -71 -90 0 -141 58 -141 160 0 67 21 115 62 140 45 27 117 27 152 -1z
m1786 -139 c0 -136 -2 -160 -15 -160 -8 0 -15 7 -15 17 0 15 -2 15 -17 0 -34
-30 -96 -25 -128 9 -45 49 -42 139 7 192 26 26 82 30 116 6 22 -15 22 -15 22
40 0 43 3 56 15 56 13 0 15 -24 15 -160z m1564 139 c14 -11 33 -34 41 -50 14
-27 14 -29 -3 -29 -10 0 -28 13 -40 30 -62 83 -177 25 -177 -90 0 -115 115
-173 177 -90 12 17 30 30 40 30 17 0 17 -2 3 -29 -24 -48 -62 -71 -114 -71
-90 0 -141 58 -141 160 0 67 21 115 62 140 45 27 117 27 152 -1z m586 -139 c0
-136 -2 -160 -15 -160 -8 0 -15 7 -15 17 0 15 -2 15 -17 0 -34 -30 -96 -25
-128 9 -45 49 -42 139 7 192 26 26 82 30 116 6 22 -15 22 -15 22 40 0 43 3 56
15 56 13 0 15 -24 15 -160z m570 103 c0 -54 1 -55 18 -40 25 23 84 21 113 -2
21 -17 24 -29 27 -120 4 -97 4 -101 -17 -101 -20 0 -21 5 -21 87 0 95 -13 123
-57 123 -47 0 -63 -32 -63 -125 0 -78 -2 -85 -20 -85 -19 0 -20 7 -20 160 0
153 1 160 20 160 18 0 20 -7 20 -57z m-23210 7 c0 -25 4 -30 25 -30 16 0 25
-6 25 -15 0 -9 -9 -15 -25 -15 -25 0 -25 -1 -25 -85 0 -82 1 -85 25 -91 34 -8
33 -34 -2 -34 -51 0 -63 23 -63 122 0 81 -2 88 -20 88 -11 0 -20 7 -20 15 0 8
9 15 20 15 16 0 20 7 20 30 0 23 4 30 20 30 16 0 20 -7 20 -30z m-840 -150 c0
-113 -1 -120 -20 -120 -19 0 -20 7 -20 120 0 113 1 120 20 120 19 0 20 -7 20
-120z m120 103 c0 -15 1 -15 18 0 23 21 62 22 62 2 0 -8 -9 -15 -20 -15 -11 0
-29 -9 -40 -20 -17 -17 -20 -33 -20 -105 0 -78 -2 -85 -20 -85 -19 0 -20 7
-20 120 0 113 1 120 20 120 12 0 20 -7 20 -17z m291 -12 c21 -22 29 -39 29
-65 l0 -36 -85 0 c-94 0 -101 -6 -64 -54 23 -30 78 -36 99 -11 15 18 53 20 48
3 -9 -26 -57 -51 -98 -51 -78 0 -128 84 -100 168 25 77 115 101 171 46z m263
8 c28 -22 35 -49 13 -49 -8 0 -22 9 -32 20 -64 70 -155 -57 -95 -132 26 -34
69 -37 95 -8 21 23 45 26 45 7 0 -28 -48 -60 -90 -60 -103 0 -148 156 -63 222
34 27 92 27 127 0z m450 -8 c33 -34 44 -93 26 -145 -15 -46 -49 -69 -101 -69
-77 0 -127 84 -99 168 25 77 120 102 174 46z m136 12 c0 -15 1 -15 18 0 23 21
62 22 62 2 0 -8 -9 -15 -20 -15 -11 0 -29 -9 -40 -20 -17 -17 -20 -33 -20
-105 0 -78 -2 -85 -20 -85 -19 0 -20 7 -20 120 0 113 1 120 20 120 12 0 20 -7
20 -17z m721 -12 c21 -22 29 -39 29 -65 l0 -36 -85 0 c-94 0 -101 -6 -64 -54
23 -30 78 -36 99 -11 15 18 53 20 48 3 -9 -26 -57 -51 -98 -51 -78 0 -126 79
-101 163 24 81 115 108 172 51z m499 19 c26 -14 40 -70 40 -157 0 -66 -2 -73
-20 -73 -12 0 -20 7 -20 17 0 14 -2 15 -17 1 -29 -24 -54 -29 -88 -18 -37 12
-61 56 -50 90 8 24 60 50 102 50 40 0 56 13 48 39 -9 29 -52 38 -88 18 -55
-32 -78 -15 -31 22 29 23 92 28 124 11z m730 0 c26 -14 40 -70 40 -157 0 -66
-2 -73 -20 -73 -12 0 -20 7 -20 17 0 14 -2 15 -17 1 -29 -24 -54 -29 -88 -18
-37 12 -61 56 -50 90 8 24 60 50 102 50 40 0 56 13 48 39 -9 29 -52 38 -88 18
-55 -32 -78 -15 -31 22 29 23 92 28 124 11z m160 -7 c0 -15 1 -15 18 0 23 21
62 22 62 2 0 -8 -9 -15 -20 -15 -11 0 -29 -9 -40 -20 -17 -17 -20 -33 -20
-105 0 -78 -2 -85 -20 -85 -19 0 -20 7 -20 120 0 113 1 120 20 120 12 0 20 -7
20 -17z m170 0 c0 -15 1 -15 18 0 23 21 62 22 62 2 0 -8 -9 -15 -20 -15 -11 0
-29 -9 -40 -20 -17 -17 -20 -33 -20 -105 0 -78 -2 -85 -20 -85 -19 0 -20 7
-20 120 0 113 1 120 20 120 12 0 20 -7 20 -17z m291 -12 c21 -22 29 -39 29
-65 l0 -36 -85 0 c-94 0 -101 -6 -64 -54 23 -30 78 -36 99 -11 15 18 53 20 48
3 -9 -26 -57 -51 -98 -51 -78 0 -128 84 -100 168 25 77 115 101 171 46z m149
12 c0 -15 1 -15 18 0 23 21 62 22 62 2 0 -8 -9 -15 -20 -15 -11 0 -29 -9 -40
-20 -17 -17 -20 -33 -20 -105 0 -78 -2 -85 -20 -85 -19 0 -20 7 -20 120 0 113
1 120 20 120 12 0 20 -7 20 -17z m280 7 c26 -14 40 -70 40 -157 0 -66 -2 -73
-20 -73 -12 0 -20 7 -20 17 0 14 -2 15 -17 1 -29 -24 -54 -29 -88 -18 -37 12
-61 56 -50 90 8 24 60 50 102 50 40 0 56 13 48 39 -9 29 -52 38 -88 18 -55
-32 -78 -15 -31 22 29 23 92 28 124 11z m701 -19 c21 -22 29 -39 29 -65 l0
-36 -85 0 c-94 0 -101 -6 -64 -54 23 -30 78 -36 99 -11 15 18 53 20 48 3 -9
-26 -57 -51 -98 -51 -78 0 -128 84 -100 168 25 77 115 101 171 46z m740 0 c21
-22 29 -39 29 -65 l0 -36 -85 0 c-94 0 -101 -6 -64 -54 23 -30 78 -36 99 -11
15 18 53 20 48 3 -9 -26 -57 -51 -98 -51 -78 0 -128 84 -100 168 25 77 115
101 171 46z m247 13 c24 -17 30 -44 8 -44 -7 0 -19 7 -26 15 -16 19 -64 19
-80 0 -20 -24 -4 -44 45 -57 83 -22 105 -63 62 -113 -18 -22 -31 -27 -71 -27
-42 -1 -53 3 -74 27 -23 27 -23 29 -6 35 13 5 23 1 32 -11 26 -38 114 -15 99
25 -3 8 -31 21 -61 30 -77 23 -98 66 -54 113 26 28 91 32 126 7z m256 3 c22
-16 35 -75 36 -159 0 -61 -2 -68 -20 -68 -12 0 -20 7 -20 17 0 14 -2 15 -17 1
-29 -24 -54 -29 -88 -18 -37 12 -61 56 -50 90 8 24 60 50 102 50 40 0 56 13
48 39 -9 29 -52 38 -88 18 -55 -32 -78 -15 -31 22 31 24 100 28 128 8z m146
-4 c0 -15 1 -15 18 0 23 21 62 22 62 2 0 -8 -9 -15 -20 -15 -11 0 -29 -9 -40
-20 -17 -17 -20 -33 -20 -105 0 -78 -2 -85 -20 -85 -19 0 -20 7 -20 120 0 113
1 120 20 120 12 0 20 -7 20 -17z m170 0 c0 -15 1 -15 18 0 23 21 62 22 62 2 0
-8 -9 -15 -20 -15 -11 0 -29 -9 -40 -20 -17 -17 -20 -33 -20 -105 0 -78 -2
-85 -20 -85 -19 0 -20 7 -20 120 0 113 1 120 20 120 12 0 20 -7 20 -17z m300
-10 c37 -33 49 -91 30 -147 -15 -46 -49 -69 -101 -69 -49 0 -84 30 -101 85
-34 116 87 207 172 131z m500 0 c37 -33 49 -91 30 -147 -15 -46 -49 -69 -101
-69 -49 0 -84 30 -101 85 -34 116 87 207 172 131z m11669 -70 l35 -97 31 94
c26 78 36 96 53 98 22 3 21 1 -12 -90 -81 -224 -90 -238 -138 -238 -15 0 -28
3 -28 8 0 10 20 39 20 29 0 -4 9 -3 20 3 35 19 33 51 -9 165 -23 59 -41 112
-41 116 0 5 8 9 18 9 13 0 26 -24 51 -97z m842 69 c24 -21 32 -39 36 -73 17
-152 -165 -202 -209 -57 -35 116 87 207 173 130z m650 0 c55 -49 48 -163 -13
-201 -34 -21 -96 -16 -124 10 -36 34 -50 90 -35 138 24 81 111 108 172 53z
m149 -57 c0 -72 3 -88 20 -105 24 -24 38 -25 68 -4 20 14 22 23 22 105 0 82 1
89 20 89 19 0 20 -7 20 -120 0 -113 -1 -120 -20 -120 -12 0 -20 7 -20 17 0 15
-1 15 -18 0 -26 -24 -85 -22 -108 4 -15 16 -19 40 -22 120 -4 95 -4 99 17 99
20 0 21 -5 21 -85z m270 68 c0 -15 1 -15 18 0 26 24 87 22 112 -3 17 -17 20
-33 20 -120 0 -82 -3 -100 -15 -100 -12 0 -15 16 -15 83 0 93 -15 127 -56 127
-48 0 -64 -31 -64 -125 0 -78 -2 -85 -20 -85 -19 0 -20 7 -20 120 0 113 1 120
20 120 12 0 20 -7 20 -17z m691 -12 c21 -22 29 -39 29 -65 l0 -36 -85 0 c-94
0 -101 -6 -64 -54 23 -30 78 -36 99 -11 15 18 53 20 48 3 -9 -26 -57 -50 -98
-50 -51 1 -85 29 -102 84 -35 116 91 210 173 129z m139 12 c0 -15 1 -15 18 0
23 21 62 22 62 2 0 -8 -9 -15 -20 -15 -11 0 -29 -9 -40 -20 -17 -17 -20 -33
-20 -105 0 -78 -2 -85 -20 -85 -19 0 -20 7 -20 120 0 113 1 120 20 120 12 0
20 -7 20 -17z m441 -12 c21 -22 29 -39 29 -65 l0 -36 -85 0 c-94 0 -101 -6
-64 -54 23 -30 78 -36 99 -11 15 18 53 20 48 3 -9 -26 -57 -50 -98 -50 -51 1
-85 29 -102 84 -35 116 91 210 173 129z m139 12 c0 -15 1 -15 18 0 26 24 87
22 112 -3 17 -17 20 -33 20 -120 0 -82 -3 -100 -15 -100 -12 0 -15 16 -15 83
0 93 -15 127 -56 127 -48 0 -64 -31 -64 -125 0 -78 -2 -85 -20 -85 -19 0 -20
7 -20 120 0 113 1 120 20 120 12 0 20 -7 20 -17z m871 -11 c55 -49 48 -163
-13 -201 -34 -21 -96 -16 -124 10 -36 34 -50 90 -35 138 24 81 111 108 172 53z
m560 -1 c21 -22 29 -39 29 -65 l0 -36 -85 0 c-94 0 -101 -6 -64 -54 23 -30 78
-36 99 -11 15 18 53 20 48 3 -9 -26 -57 -50 -98 -50 -51 1 -85 29 -102 84 -35
116 91 210 173 129z m139 12 c0 -15 1 -15 18 0 23 21 62 22 62 2 0 -8 -9 -15
-20 -15 -11 0 -29 -9 -40 -20 -17 -17 -20 -33 -20 -105 0 -78 -2 -85 -20 -85
-19 0 -20 7 -20 120 0 113 1 120 20 120 12 0 20 -7 20 -17z m581 -11 c55 -49
48 -163 -13 -201 -34 -21 -96 -16 -124 10 -36 34 -50 90 -35 138 24 81 111
108 172 53z m139 -57 c0 -72 3 -88 20 -105 24 -24 38 -25 68 -4 20 14 22 23
22 105 0 82 1 89 20 89 19 0 20 -7 20 -120 0 -113 -1 -120 -20 -120 -12 0 -20
7 -20 17 0 15 -1 15 -18 0 -25 -23 -74 -21 -103 2 -21 17 -24 29 -27 120 -4
97 -4 101 17 101 20 0 21 -5 21 -85z m380 65 c11 -11 20 -24 20 -30 0 -15 -26
-12 -40 5 -16 19 -64 19 -80 0 -20 -24 -4 -44 45 -57 58 -16 90 -48 81 -82 -9
-36 -48 -58 -99 -58 -33 1 -47 7 -66 28 -22 26 -22 28 -5 34 13 5 23 1 32 -11
26 -38 114 -15 99 25 -4 9 -31 22 -62 31 -55 17 -75 36 -75 74 0 52 109 82
150 41z m271 -9 c21 -22 29 -39 29 -65 l0 -36 -85 0 c-94 0 -101 -6 -64 -54
23 -30 78 -36 99 -11 15 18 53 20 48 3 -9 -26 -57 -50 -98 -50 -51 1 -85 29
-102 84 -35 116 91 210 173 129z m-5171 -76 c0 -12 -14 -15 -70 -15 -56 0 -70
3 -70 15 0 12 14 15 70 15 56 0 70 -3 70 -15z m-17676 -421 c26 -10 18 -32
-11 -36 -22 -2 -29 -9 -31 -30 -3 -24 0 -28 22 -28 16 0 26 -6 26 -15 0 -9 -9
-15 -25 -15 l-25 0 0 -105 c0 -98 -1 -105 -20 -105 -19 0 -20 7 -20 105 0 98
-1 105 -20 105 -11 0 -20 7 -20 15 0 8 9 15 20 15 15 0 20 7 20 28 0 28 20 54
50 65 8 3 16 6 17 6 1 1 8 -2 17 -5z m-2201 -44 c41 -36 54 -70 27 -70 -10 0
-25 11 -34 25 -24 37 -62 49 -108 35 -47 -13 -70 -54 -70 -120 0 -66 23 -107
70 -120 46 -14 84 -2 108 35 9 14 24 25 34 25 27 0 14 -34 -27 -70 -28 -25
-42 -30 -87 -30 -90 0 -136 55 -136 165 0 100 48 154 137 155 44 0 58 -5 86
-30z m347 10 c0 -17 -7 -20 -50 -20 l-50 0 0 -140 c0 -133 -1 -140 -20 -140
-19 0 -20 7 -20 139 l0 140 -47 3 c-36 2 -49 7 -51 21 -3 15 8 17 117 17 114
0 121 -1 121 -20z m271 -7 c80 -67 80 -199 0 -266 -26 -22 -43 -27 -85 -27
-89 0 -136 56 -136 160 0 104 47 160 136 160 42 0 59 -5 85 -27z m882 -3 c41
-36 54 -70 27 -70 -10 0 -25 11 -34 25 -24 37 -62 49 -108 35 -47 -13 -70 -54
-70 -120 0 -66 23 -107 70 -120 46 -14 84 -2 108 35 9 14 24 25 34 25 27 0 14
-34 -27 -70 -28 -25 -42 -30 -87 -30 -89 0 -136 55 -136 160 0 104 48 159 137
160 44 0 58 -5 86 -30z m1797 -130 c0 -153 -1 -160 -20 -160 -12 0 -20 7 -20
17 0 14 -2 15 -17 1 -74 -64 -174 12 -159 121 12 85 91 129 154 85 22 -15 22
-15 22 40 0 49 2 56 20 56 19 0 20 -7 20 -160z m1553 130 c45 -39 54 -70 22
-70 -14 0 -25 7 -28 19 -2 11 -19 27 -37 36 -46 24 -103 7 -126 -37 -21 -40
-21 -116 0 -155 29 -58 116 -66 156 -16 31 40 26 53 -20 53 -33 0 -40 3 -40
20 0 18 7 20 60 20 l60 0 0 -30 c0 -82 -51 -130 -138 -130 -86 0 -132 56 -132
160 0 106 46 159 137 160 44 0 58 -5 86 -30z m-3903 -147 l34 -97 31 95 c26
77 36 95 53 97 12 2 22 2 22 0 0 -18 -113 -295 -126 -309 -14 -16 -74 -28 -74
-15 0 18 15 36 31 36 11 0 24 11 31 24 9 21 4 43 -31 138 -23 62 -41 116 -41
121 0 4 8 7 18 7 13 0 26 -23 52 -97z m844 68 c50 -52 44 -162 -10 -198 -37
-24 -100 -20 -130 8 -55 52 -54 154 3 198 40 32 102 28 137 -8z m650 0 c50
-52 44 -162 -10 -198 -37 -24 -100 -20 -130 8 -55 52 -54 154 3 198 40 32 102
28 137 -8z m136 -56 c0 -72 3 -88 20 -105 24 -24 38 -25 68 -4 20 14 22 23 22
105 0 82 1 89 20 89 19 0 20 -7 20 -120 0 -113 -1 -120 -20 -120 -12 0 -20 7
-20 17 0 15 -1 15 -18 0 -27 -24 -85 -22 -108 4 -15 17 -20 40 -22 120 -4 95
-3 99 17 99 20 0 21 -5 21 -85z m270 68 c0 -15 1 -15 18 0 26 24 87 22 112 -3
17 -17 20 -33 20 -120 0 -79 -3 -100 -14 -100 -11 0 -15 21 -18 91 -2 76 -6
93 -22 105 -27 19 -52 18 -76 -6 -17 -17 -20 -33 -20 -105 0 -78 -2 -85 -20
-85 -19 0 -20 7 -20 120 0 113 1 120 20 120 12 0 20 -7 20 -17z m691 -12 c21
-22 29 -39 29 -65 l0 -36 -85 0 c-94 0 -101 -6 -64 -54 23 -30 78 -36 99 -11
15 18 53 20 48 3 -9 -26 -57 -51 -98 -51 -78 0 -128 84 -100 168 25 77 115
101 171 46z m139 12 c0 -15 1 -15 18 0 23 21 62 22 62 2 0 -8 -9 -15 -20 -15
-11 0 -29 -9 -40 -20 -17 -17 -20 -33 -20 -105 0 -78 -2 -85 -20 -85 -19 0
-20 7 -20 120 0 113 1 120 20 120 12 0 20 -7 20 -17z m441 -12 c21 -22 29 -39
29 -65 l0 -36 -85 0 c-94 0 -101 -6 -64 -54 23 -30 78 -36 99 -11 15 18 53 20
48 3 -9 -26 -57 -51 -98 -51 -78 0 -128 84 -100 168 25 77 115 101 171 46z
m139 12 c0 -15 1 -15 18 0 26 24 87 22 112 -3 17 -17 20 -33 20 -120 0 -79 -3
-100 -14 -100 -11 0 -15 21 -18 91 -2 76 -6 93 -22 105 -27 19 -52 18 -76 -6
-17 -17 -20 -33 -20 -105 0 -78 -2 -85 -20 -85 -19 0 -20 7 -20 120 0 113 1
120 20 120 12 0 20 -7 20 -17z m881 -12 c21 -22 29 -39 29 -65 l0 -36 -85 0
c-94 0 -101 -6 -64 -54 23 -30 78 -36 99 -11 15 18 53 20 48 3 -9 -26 -57 -51
-98 -51 -78 0 -128 84 -100 168 25 77 115 101 171 46z m279 2 c37 -33 49 -91
30 -147 -15 -46 -49 -69 -101 -69 -49 0 -84 30 -101 85 -34 116 87 207 172
131z m140 10 c0 -15 1 -15 18 0 26 23 84 21 115 -4 54 -42 56 -149 3 -198 -30
-28 -89 -31 -117 -5 -19 17 -19 16 -19 -44 0 -55 -2 -62 -20 -62 -19 0 -20 7
-20 165 0 158 1 165 20 165 12 0 20 -7 20 -17z m394 4 c22 -16 35 -75 36 -159
0 -61 -2 -68 -20 -68 -12 0 -20 7 -20 17 0 14 -2 15 -17 1 -29 -24 -54 -29
-88 -18 -37 12 -61 56 -50 90 8 24 60 50 102 50 40 0 56 13 48 39 -9 29 -52
38 -88 18 -55 -32 -78 -15 -31 22 31 24 100 28 128 8z m264 -3 c20 -14 22 -14
22 0 0 10 9 16 21 16 21 0 21 -3 17 -139 -3 -129 -5 -142 -26 -164 -38 -40
-130 -41 -162 -1 -21 24 4 42 28 21 10 -9 35 -17 55 -17 42 0 67 28 67 74 0
27 -1 28 -17 13 -73 -65 -175 11 -158 117 12 81 93 123 153 80z m302 -11 c37
-33 49 -91 30 -147 -15 -46 -49 -69 -101 -69 -49 0 -84 30 -101 85 -34 116 87
207 172 131z m248 11 c24 -17 30 -44 8 -44 -7 0 -19 7 -26 15 -16 19 -64 19
-80 0 -20 -24 -4 -44 45 -57 83 -22 105 -63 62 -113 -18 -22 -31 -27 -71 -27
-42 -1 -53 3 -74 27 -23 27 -23 29 -6 35 13 5 23 1 32 -11 26 -38 114 -15 99
25 -3 8 -31 21 -61 30 -77 23 -98 66 -54 113 26 28 91 32 126 7z m-4738 -84
c0 -18 -7 -20 -70 -20 -52 0 -70 3 -70 13 0 23 11 27 77 27 56 0 63 -2 63 -20z"/>
<path d="M28930 19285 c0 -23 4 -26 28 -23 19 2 27 9 27 23 0 14 -8 21 -27 23
-24 3 -28 0 -28 -23z"/>
<path d="M29078 19293 c-8 -10 -18 -30 -22 -45 -3 -16 -13 -28 -21 -28 -8 0
-15 -9 -15 -20 0 -11 7 -20 15 -20 12 0 15 -18 15 -100 l0 -100 30 0 30 0 0
100 0 100 25 0 c18 0 25 5 25 20 0 15 -7 20 -26 20 -20 0 -25 4 -22 22 2 14
12 24 28 28 14 3 26 14 28 23 5 24 -69 24 -90 0z"/>
<path d="M29210 19285 c0 -23 4 -26 28 -23 19 2 27 9 27 23 0 14 -8 21 -27 23
-24 3 -28 0 -28 -23z"/>
<path d="M28053 19280 c-44 -26 -66 -74 -66 -140 0 -66 22 -114 66 -140 59
-37 155 -20 191 32 40 57 -11 84 -52 28 -30 -40 -87 -42 -123 -4 -20 21 -24
36 -24 84 0 48 4 63 24 84 36 38 93 36 123 -4 41 -56 92 -29 52 28 -36 52
-132 69 -191 32z"/>
<path d="M29980 19240 l0 -60 -20 20 c-48 48 -131 11 -145 -64 -22 -112 64
-196 143 -140 20 14 22 14 22 0 0 -11 10 -16 30 -16 l30 0 0 160 0 160 -30 0
-30 0 0 -60z m-20 -80 c40 -40 15 -140 -35 -140 -29 0 -55 38 -55 80 0 42 26
80 55 80 8 0 24 -9 35 -20z"/>
<path d="M28780 19250 c0 -23 -4 -30 -20 -30 -13 0 -20 -7 -20 -19 0 -10 9
-21 20 -24 18 -5 20 -14 20 -85 0 -93 11 -112 66 -112 27 0 34 4 34 19 0 12
-9 21 -25 25 -24 6 -25 10 -25 81 0 73 1 75 25 75 18 0 25 5 25 20 0 15 -7 20
-25 20 -21 0 -25 5 -25 30 0 25 -4 30 -25 30 -21 0 -25 -5 -25 -30z"/>
<path d="M28349 19192 c-57 -51 -47 -172 17 -201 46 -21 108 -14 137 15 15 15
24 30 21 35 -8 14 -44 10 -60 -6 -32 -32 -94 -8 -94 36 0 17 8 19 80 19 78 0
80 1 80 25 0 92 -111 140 -181 77z m115 -34 c24 -34 20 -38 -39 -38 -59 0 -68
10 -38 42 22 25 59 23 77 -4z"/>
<path d="M28580 19100 l0 -120 25 0 c24 0 25 2 25 68 0 82 15 115 55 122 21 4
31 12 33 28 3 18 -1 22 -22 22 -14 0 -35 -9 -46 -20 l-20 -20 0 20 c0 15 -7
20 -25 20 l-25 0 0 -120z"/>
<path d="M28930 19100 l0 -120 25 0 25 0 0 120 0 120 -25 0 -25 0 0 -120z"/>
<path d="M29210 19100 l0 -120 25 0 25 0 0 120 0 120 -25 0 -25 0 0 -120z"/>
<path d="M29348 19191 c-31 -27 -33 -34 -33 -91 0 -57 2 -64 33 -91 25 -23 42
-29 76 -29 49 0 96 30 96 61 0 25 -34 25 -60 -1 -44 -44 -90 -12 -90 63 0 39
4 49 25 63 21 14 31 15 50 6 14 -7 25 -16 25 -22 0 -5 11 -10 25 -10 32 0 33
23 0 55 -36 37 -104 35 -147 -4z"/>
<path d="M29594 19197 c-29 -25 -26 -47 5 -47 10 0 24 7 31 16 17 19 60 15 74
-8 14 -23 5 -30 -55 -39 -28 -5 -60 -16 -70 -25 -25 -22 -24 -69 1 -94 25 -25
86 -27 112 -3 17 15 18 15 18 0 0 -11 8 -17 25 -17 25 0 25 0 25 99 0 96 -1
100 -26 120 -38 30 -104 28 -140 -2z m116 -123 c0 -34 -20 -54 -56 -54 -38 0
-54 21 -34 45 20 25 90 32 90 9z"/>
<path d="M30128 19191 c-31 -27 -33 -34 -33 -91 0 -57 2 -64 33 -91 64 -58
159 -31 183 52 37 120 -92 211 -183 130z m112 -31 c40 -40 17 -140 -32 -140
-37 0 -58 29 -58 78 0 74 46 106 90 62z"/>
<path d="M1730 19408 c-15 -35 -120 -507 -120 -539 0 -25 4 -29 29 -29 16 0
34 6 40 14 16 19 135 542 128 561 -10 25 -66 19 -77 -7z"/>
<path d="M3941 19417 c-15 -19 -134 -544 -127 -562 6 -16 43 -20 65 -6 15 9
145 557 135 572 -8 14 -60 11 -73 -4z"/>
<path d="M2155 19343 c-9 -43 -38 -171 -64 -285 l-48 -208 28 0 c43 0 57 9 68
43 26 85 113 497 108 511 -4 10 -19 16 -41 16 l-34 0 -17 -77z"/>
<path d="M3005 19408 c-11 -37 -45 -202 -41 -205 7 -8 55 9 67 24 15 17 48
162 42 181 -3 6 -18 12 -34 12 -16 0 -31 -6 -34 -12z"/>
<path d="M21625 15381 c-155 -97 -371 -515 -382 -741 -5 -95 6 -127 50 -148
49 -24 102 0 183 81 155 158 261 412 271 652 5 112 4 122 -17 148 -26 32 -62
35 -105 8z"/>
<path d="M11010 15848 c-25 -13 -54 -37 -65 -54 -24 -35 -279 -1123 -279
-1191 -1 -76 69 -113 175 -93 82 16 138 48 210 119 167 168 283 480 305 826
13 211 -29 332 -135 387 -69 36 -147 38 -211 6z"/>
<path d="M12076 15445 c-100 -35 -231 -226 -287 -418 -30 -99 -23 -106 65 -73
188 71 313 222 323 389 7 102 -22 130 -101 102z"/>
<path d="M13577 15446 c-180 -64 -377 -467 -377 -773 0 -104 14 -133 61 -133
42 0 78 21 127 74 127 138 285 471 310 654 20 142 -27 211 -121 178z"/>
<path d="M16115 15442 c-155 -73 -288 -389 -289 -687 -1 -173 28 -253 99 -271
152 -38 345 284 374 624 24 267 -48 397 -184 334z"/>
<path d="M18135 15442 c-155 -73 -288 -389 -289 -687 -1 -173 28 -253 99 -271
152 -38 345 284 374 624 24 267 -48 397 -184 334z"/>
<path d="M20755 15442 c-103 -48 -239 -260 -286 -445 -16 -67 -7 -73 76 -43
184 67 315 225 323 391 4 77 -6 100 -48 109 -14 4 -42 -2 -65 -12z"/>
<path d="M13572 12222 c-18 -54 -32 -101 -32 -105 0 -4 29 -7 65 -7 47 0 65 4
65 13 0 13 -57 187 -63 193 -2 2 -17 -41 -35 -94z"/>
<path d="M16693 12220 c-60 -25 -77 -150 -27 -209 50 -59 121 -35 144 49 27
100 -40 192 -117 160z"/>
<path d="M14060 12076 c-30 -6 -61 -15 -67 -19 -20 -13 -16 -65 6 -77 60 -31
131 9 131 75 0 19 -3 35 -7 34 -5 0 -33 -6 -63 -13z"/>
<path d="M14691 12202 c-34 -33 -46 -88 -31 -142 15 -55 42 -80 85 -80 48 0
81 34 90 93 9 57 -8 110 -42 137 -35 28 -69 25 -102 -8z"/>
<path d="M16300 12076 c-30 -6 -61 -15 -67 -19 -20 -13 -16 -65 6 -77 60 -31
131 9 131 75 0 19 -3 35 -7 34 -5 0 -33 -6 -63 -13z"/>
<path d="M17127 12219 c-15 -9 -47 -59 -47 -74 0 -3 41 -5 90 -5 84 0 90 1 90
20 0 33 -44 70 -82 70 -18 0 -41 -5 -51 -11z"/>
<path d="M18410 12076 c-30 -6 -61 -15 -67 -19 -20 -13 -16 -65 6 -77 60 -31
131 9 131 75 0 19 -3 35 -7 34 -5 0 -33 -6 -63 -13z"/>
<path d="M11037 11083 c-25 -6 -47 -55 -47 -103 0 -33 6 -48 29 -71 36 -35 64
-37 96 -4 21 20 25 34 25 80 0 46 -4 60 -25 80 -23 24 -40 28 -78 18z"/>
<path d="M14587 11083 c-25 -6 -47 -55 -47 -103 0 -33 6 -48 29 -71 36 -35 64
-37 96 -4 21 20 25 34 25 80 0 46 -4 60 -25 80 -23 24 -40 28 -78 18z"/>
<path d="M21562 11083 c-20 -8 -42 -59 -42 -97 0 -47 17 -81 47 -95 36 -16 51
-14 78 14 21 20 25 34 25 80 0 46 -4 60 -25 80 -23 23 -53 30 -83 18z"/>
<path d="M8950 10971 c-49 -10 -60 -18 -60 -46 0 -26 25 -45 58 -45 33 0 72
38 72 71 0 31 -5 33 -70 20z"/>
<path d="M9585 11078 c-24 -14 -44 -39 -45 -55 0 -9 21 -13 75 -13 84 0 95 11
50 55 -26 27 -49 31 -80 13z"/>
<path d="M9900 10971 c-49 -10 -60 -18 -60 -46 0 -26 25 -45 58 -45 33 0 72
38 72 71 0 31 -5 33 -70 20z"/>
<path d="M10750 10971 c-49 -10 -60 -18 -60 -46 0 -26 25 -45 58 -45 33 0 72
38 72 71 0 31 -5 33 -70 20z"/>
<path d="M11339 11061 c-24 -24 -29 -38 -29 -76 0 -38 5 -52 29 -76 36 -35 61
-37 98 -5 25 21 28 31 28 81 0 50 -3 60 -28 81 -37 32 -62 30 -98 -5z"/>
<path d="M12559 11061 c-24 -24 -29 -38 -29 -76 0 -38 5 -52 29 -76 36 -35 61
-37 98 -5 25 21 28 31 28 81 0 50 -3 60 -28 81 -37 32 -62 30 -98 -5z"/>
<path d="M13342 11078 c-28 -14 -47 -74 -38 -122 7 -37 46 -76 75 -76 52 0 89
75 70 143 -16 57 -57 79 -107 55z"/>
<path d="M13790 11083 c-19 -7 -49 -44 -50 -60 0 -9 22 -13 75 -13 84 0 95 11
50 55 -23 24 -44 29 -75 18z"/>
<path d="M14300 10971 c-49 -10 -60 -18 -60 -46 0 -26 25 -45 58 -45 33 0 72
38 72 71 0 31 -5 33 -70 20z"/>
<path d="M14889 11061 c-24 -24 -29 -38 -29 -76 0 -38 5 -52 29 -76 36 -35 61
-37 98 -5 25 21 28 31 28 81 0 50 -3 60 -28 81 -37 32 -62 30 -98 -5z"/>
<path d="M15659 11061 c-24 -24 -29 -38 -29 -76 0 -38 5 -52 29 -76 36 -35 61
-37 98 -5 25 21 28 31 28 81 0 50 -3 60 -28 81 -37 32 -62 30 -98 -5z"/>
<path d="M16443 11080 c-21 -9 -43 -38 -43 -59 0 -7 29 -11 75 -11 84 0 95 11
50 55 -25 26 -45 30 -82 15z"/>
<path d="M17339 11061 c-24 -24 -29 -38 -29 -76 0 -38 5 -52 29 -76 36 -35 61
-37 98 -5 25 21 28 31 28 81 0 50 -3 60 -28 81 -37 32 -62 30 -98 -5z"/>
<path d="M19629 11061 c-24 -24 -29 -38 -29 -76 0 -38 5 -52 29 -76 36 -35 61
-37 98 -5 25 21 28 31 28 81 0 50 -3 60 -28 81 -37 32 -62 30 -98 -5z"/>
<path d="M20113 11080 c-21 -9 -43 -38 -43 -59 0 -7 29 -11 75 -11 84 0 95 11
50 55 -25 26 -45 30 -82 15z"/>
<path d="M21254 11078 c-28 -13 -44 -49 -44 -99 0 -31 7 -47 29 -70 36 -35 61
-37 98 -5 25 21 28 31 28 81 0 50 -3 60 -28 81 -30 26 -50 29 -83 12z"/>
<path d="M21893 11080 c-21 -9 -43 -38 -43 -59 0 -7 29 -11 75 -11 84 0 95 11
50 55 -25 26 -45 30 -82 15z"/>
<path d="M22714 11078 c-28 -13 -44 -49 -44 -99 0 -31 7 -47 29 -70 36 -35 61
-37 98 -5 25 21 28 31 28 81 0 50 -3 60 -28 81 -30 26 -50 29 -83 12z"/>
<path d="M23613 11080 c-21 -9 -43 -38 -43 -59 0 -7 29 -11 75 -11 84 0 95 11
50 55 -25 26 -45 30 -82 15z"/>
<path d="M13562 10534 c-47 -33 -17 -104 45 -104 56 0 83 60 43 100 -24 24
-57 26 -88 4z"/>
<path d="M13564 10378 c-43 -20 -50 -89 -12 -109 31 -17 87 -13 109 7 59 53
-22 139 -97 102z"/>
<path d="M21392 10530 c-28 -26 -37 -60 -37 -135 1 -69 19 -114 54 -131 53
-27 100 22 108 114 12 129 -59 214 -125 152z"/>
<path d="M9147 10453 c-25 -6 -47 -55 -47 -103 0 -56 46 -105 88 -96 44 11 62
41 62 103 0 44 -5 58 -25 78 -23 24 -40 28 -78 18z"/>
<path d="M12447 10453 c-25 -6 -47 -55 -47 -103 0 -33 6 -48 29 -71 36 -35 64
-37 96 -4 21 20 25 34 25 80 0 46 -4 60 -25 80 -23 24 -40 28 -78 18z"/>
<path d="M15607 10453 c-25 -6 -47 -55 -47 -103 0 -33 6 -48 29 -71 36 -35 64
-37 96 -4 21 20 25 34 25 80 0 46 -4 60 -25 80 -23 24 -40 28 -78 18z"/>
<path d="M16842 10453 c-21 -8 -42 -60 -42 -103 0 -33 6 -48 29 -71 36 -35 64
-37 96 -4 21 20 25 34 25 80 0 46 -4 60 -25 80 -23 23 -53 30 -83 18z"/>
<path d="M20362 10453 c-21 -8 -42 -60 -42 -103 0 -33 6 -48 29 -71 36 -35 64
-37 96 -4 21 20 25 34 25 80 0 46 -4 60 -25 80 -23 23 -53 30 -83 18z"/>
<path d="M8710 10341 c-49 -10 -60 -18 -60 -46 0 -26 25 -45 58 -45 33 0 72
38 72 71 0 31 -5 33 -70 20z"/>
<path d="M10000 10341 c-49 -10 -60 -18 -60 -46 0 -26 25 -45 58 -45 33 0 72
38 72 71 0 31 -5 33 -70 20z"/>
<path d="M10689 10431 c-24 -24 -29 -38 -29 -76 0 -38 5 -52 29 -76 36 -35 61
-37 98 -5 25 21 28 31 28 81 0 50 -3 60 -28 81 -37 32 -62 30 -98 -5z"/>
<path d="M11985 10448 c-24 -14 -44 -39 -45 -55 0 -9 21 -13 75 -13 84 0 95
11 50 55 -26 27 -49 31 -80 13z"/>
<path d="M12765 10448 c-24 -14 -44 -39 -45 -55 0 -9 21 -13 75 -13 84 0 95
11 50 55 -26 27 -49 31 -80 13z"/>
<path d="M14339 10431 c-24 -24 -29 -38 -29 -76 0 -38 5 -52 29 -76 36 -35 61
-37 98 -5 25 21 28 31 28 81 0 50 -3 60 -28 81 -37 32 -62 30 -98 -5z"/>
<path d="M14890 10341 c-49 -10 -60 -18 -60 -46 0 -26 25 -45 58 -45 33 0 72
38 72 71 0 31 -5 33 -70 20z"/>
<path d="M16570 10341 c-49 -10 -60 -18 -60 -46 0 -26 25 -45 58 -45 33 0 72
38 72 71 0 31 -5 33 -70 20z"/>
<path d="M17190 10341 c-49 -10 -60 -18 -60 -46 0 -26 25 -45 58 -45 33 0 72
38 72 71 0 31 -5 33 -70 20z"/>
<path d="M17910 10341 c-49 -10 -60 -18 -60 -46 0 -26 25 -45 58 -45 33 0 72
38 72 71 0 31 -5 33 -70 20z"/>
<path d="M18469 10431 c-24 -24 -29 -38 -29 -76 0 -38 5 -52 29 -76 36 -35 61
-37 98 -5 25 21 28 31 28 81 0 50 -3 60 -28 81 -37 32 -62 30 -98 -5z"/>
<path d="M19110 10341 c-49 -10 -60 -18 -60 -46 0 -26 25 -45 58 -45 33 0 72
38 72 71 0 31 -5 33 -70 20z"/>
<path d="M19570 10440 c-25 -25 -34 -61 -27 -107 8 -45 23 -61 64 -69 26 -5
37 -1 57 19 37 37 37 117 1 152 -29 30 -68 32 -95 5z"/>
<path d="M19879 10431 c-24 -24 -29 -38 -29 -76 0 -38 5 -52 29 -76 36 -35 61
-37 98 -5 25 21 28 31 28 81 0 50 -3 60 -28 81 -37 32 -62 30 -98 -5z"/>
<path d="M20693 10450 c-21 -9 -43 -38 -43 -59 0 -7 29 -11 75 -11 84 0 95 11
50 55 -25 26 -45 30 -82 15z"/>
<path d="M22153 10450 c-21 -9 -43 -38 -43 -59 0 -7 29 -11 75 -11 84 0 95 11
50 55 -25 26 -45 30 -82 15z"/>
<path d="M22920 10341 c-49 -10 -60 -18 -60 -46 0 -26 25 -45 58 -45 33 0 72
38 72 71 0 31 -5 33 -70 20z"/>
<path d="M23520 10341 c-49 -10 -60 -18 -60 -46 0 -26 25 -45 58 -45 33 0 72
38 72 71 0 31 -5 33 -70 20z"/>
<path d="M11817 9823 c-25 -6 -47 -55 -47 -103 0 -33 6 -48 29 -71 36 -35 64
-37 96 -4 21 20 25 34 25 80 0 46 -4 60 -25 80 -23 24 -40 28 -78 18z"/>
<path d="M13127 9823 c-25 -6 -47 -55 -47 -103 0 -33 6 -48 29 -71 36 -35 64
-37 96 -4 21 20 25 34 25 80 0 46 -4 60 -25 80 -23 24 -40 28 -78 18z"/>
<path d="M18562 9823 c-21 -8 -42 -60 -42 -103 0 -33 6 -48 29 -71 36 -35 64
-37 96 -4 21 20 25 34 25 80 0 46 -4 60 -25 80 -23 23 -53 30 -83 18z"/>
<path d="M21982 9823 c-20 -8 -42 -59 -42 -97 0 -47 17 -81 47 -95 36 -16 51
-14 78 14 21 20 25 34 25 80 0 46 -4 60 -25 80 -23 23 -53 30 -83 18z"/>
<path d="M10632 9818 c-28 -14 -47 -74 -38 -122 7 -37 46 -76 75 -76 52 0 89
75 70 143 -16 57 -57 79 -107 55z"/>
<path d="M11205 9818 c-24 -14 -44 -39 -45 -55 0 -9 21 -13 75 -13 84 0 95 11
50 55 -26 27 -49 31 -80 13z"/>
<path d="M12129 9801 c-24 -24 -29 -38 -29 -76 0 -38 5 -52 29 -76 36 -35 61
-37 98 -5 25 21 28 31 28 81 0 50 -3 60 -28 81 -37 32 -62 30 -98 -5z"/>
<path d="M12789 9801 c-24 -24 -29 -38 -29 -76 0 -38 5 -52 29 -76 36 -35 61
-37 98 -5 25 21 28 31 28 81 0 50 -3 60 -28 81 -37 32 -62 30 -98 -5z"/>
<path d="M13429 9801 c-24 -24 -29 -38 -29 -76 0 -38 5 -52 29 -76 36 -35 61
-37 98 -5 25 21 28 31 28 81 0 50 -3 60 -28 81 -37 32 -62 30 -98 -5z"/>
<path d="M14309 9801 c-24 -24 -29 -38 -29 -76 0 -38 5 -52 29 -76 36 -35 61
-37 98 -5 25 21 28 31 28 81 0 50 -3 60 -28 81 -37 32 -62 30 -98 -5z"/>
<path d="M15270 9823 c-19 -7 -49 -44 -50 -60 0 -9 22 -13 75 -13 84 0 95 11
50 55 -23 24 -44 29 -75 18z"/>
<path d="M15577 9823 c-25 -6 -47 -55 -47 -103 0 -33 6 -48 29 -71 36 -35 64
-37 96 -4 21 20 25 34 25 80 0 46 -4 60 -25 80 -23 24 -40 28 -78 18z"/>
<path d="M16919 9801 c-24 -24 -29 -38 -29 -76 0 -38 5 -52 29 -76 36 -35 61
-37 98 -5 25 21 28 31 28 81 0 50 -3 60 -28 81 -37 32 -62 30 -98 -5z"/>
<path d="M17690 9711 c-49 -10 -60 -18 -60 -46 0 -26 25 -45 58 -45 33 0 72
38 72 71 0 31 -5 33 -70 20z"/>
<path d="M18280 9711 c-49 -10 -60 -18 -60 -46 0 -26 25 -45 58 -45 33 0 72
38 72 71 0 31 -5 33 -70 20z"/>
<path d="M18883 9820 c-21 -9 -43 -38 -43 -59 0 -7 29 -11 75 -11 84 0 95 11
50 55 -25 26 -45 30 -82 15z"/>
<path d="M20074 9818 c-28 -13 -44 -49 -44 -99 0 -31 7 -47 29 -70 36 -35 61
-37 98 -5 25 21 28 31 28 81 0 50 -3 60 -28 81 -30 26 -50 29 -83 12z"/>
<path d="M20813 9820 c-21 -9 -43 -38 -43 -59 0 -7 29 -11 75 -11 84 0 95 11
50 55 -25 26 -45 30 -82 15z"/>
<path d="M21532 9823 c-21 -8 -42 -59 -42 -101 0 -48 24 -80 67 -88 26 -5 37
-1 57 19 37 37 37 117 1 152 -23 23 -53 30 -83 18z"/>
<path d="M22304 9818 c-28 -13 -44 -49 -44 -99 0 -31 7 -47 29 -70 36 -35 61
-37 98 -5 25 21 28 31 28 81 0 50 -3 60 -28 81 -30 26 -50 29 -83 12z"/>
<path d="M14270 7630 c-25 -25 -27 -95 -4 -128 30 -43 96 -23 110 34 20 80
-54 146 -106 94z"/>
<path d="M16484 7629 c-12 -14 -19 -36 -19 -64 0 -52 26 -85 66 -85 37 0 59
33 59 87 0 73 -63 110 -106 62z"/>
<path d="M17240 7630 c-25 -25 -27 -95 -4 -128 30 -43 96 -23 110 34 20 80
-54 146 -106 94z"/>
<path d="M18126 7707 c-30 -30 -41 -81 -31 -143 19 -131 135 -102 135 34 0 54
-21 122 -39 122 -5 0 -16 3 -25 6 -9 3 -25 -4 -40 -19z"/>
<path d="M14530 7630 c-37 -37 -26 -50 39 -50 33 0 62 4 65 9 3 5 -4 20 -15
35 -25 31 -61 34 -89 6z"/>
<path d="M15110 7630 c-37 -37 -26 -50 39 -50 33 0 62 4 65 9 3 5 -4 20 -15
35 -25 31 -61 34 -89 6z"/>
<path d="M15360 7630 c-14 -14 -20 -33 -20 -63 0 -54 22 -87 59 -87 40 0 66
33 66 85 0 74 -59 111 -105 65z"/>
<path d="M15860 7630 c-37 -37 -26 -50 39 -50 33 0 62 4 65 9 3 5 -4 20 -15
35 -25 31 -61 34 -89 6z"/>
<path d="M16880 7630 c-37 -37 -26 -50 39 -50 33 0 62 4 65 9 3 5 -4 20 -15
35 -25 31 -61 34 -89 6z"/>
<path d="M17500 7630 c-37 -37 -26 -50 39 -50 33 0 62 4 65 9 3 5 -4 20 -15
35 -25 31 -61 34 -89 6z"/>
<path d="M6546 5355 c-99 -67 -208 -152 -302 -233 -73 -63 -184 -186 -184
-203 0 -12 26 -11 71 1 75 21 371 237 414 302 60 90 106 188 88 188 -4 -1 -43
-25 -87 -55z"/>
<path d="M7852 5560 c-63 -29 -342 -264 -328 -277 7 -7 378 266 391 287 10 16
-16 11 -63 -10z"/>
<path d="M25358 5345 c-208 -53 -535 -222 -758 -391 -196 -149 -167 -178 90
-94 47 16 137 44 200 64 128 40 108 23 214 191 68 110 102 152 112 142 12 -12
-13 -103 -51 -181 -19 -40 -35 -76 -35 -80 0 -12 79 4 127 25 43 18 133 23
133 7 0 -4 -5 -8 -10 -8 -6 0 -15 -12 -22 -27 -26 -65 -112 -239 -126 -255
-23 -27 1 -21 27 6 13 14 36 30 52 36 25 11 34 9 75 -15 37 -22 53 -26 82 -20
62 12 154 65 212 124 51 50 120 151 120 175 0 8 -231 3 -345 -9 l-50 -5 60 15
c33 8 123 17 200 21 110 5 143 10 153 22 7 9 12 45 12 88 0 63 -3 76 -25 103
-42 49 -118 71 -264 76 -90 3 -142 0 -183 -10z"/>
<path d="M25135 5128 c-31 -45 -66 -100 -77 -121 l-20 -40 29 8 c33 8 53 23
53 39 0 7 11 34 25 62 26 53 57 134 50 134 -2 0 -29 -37 -60 -82z"/>
<path d="M25161 4977 l-45 -12 -83 -169 c-47 -92 -82 -170 -80 -172 2 -2 40
44 83 103 43 60 107 143 142 186 67 82 66 86 -17 64z"/>
<path d="M25031 4943 c-23 -19 -92 -149 -240 -449 -126 -256 -129 -275 -24
-137 32 43 74 109 94 148 20 38 77 150 127 248 51 98 92 185 92 193 0 19 -23
18 -49 -3z"/>
<path d="M16446 4258 c-19 -27 -21 -78 -3 -100 38 -49 97 -18 97 50 0 65 -61
97 -94 50z"/>
<path d="M15257 4262 c-30 -32 -21 -42 38 -42 59 0 70 13 39 44 -21 21 -57 20
-77 -2z"/>
<path d="M16248 4189 c-25 -14 -22 -37 6 -50 32 -15 66 4 66 36 0 21 -5 25
-27 25 -16 0 -36 -5 -45 -11z"/>
<path d="M16666 4258 c-32 -45 -8 -128 37 -128 43 0 74 61 55 109 -17 46 -66
56 -92 19z"/>
<path d="M16987 4262 c-40 -44 -5 -142 46 -126 32 9 37 16 44 57 11 69 -49
115 -90 69z"/>
<path d="M17196 4258 c-32 -45 -8 -128 37 -128 43 0 74 61 55 109 -17 46 -66
56 -92 19z"/>
<path d="M5473 3683 c934 -2 2460 -2 3390 0 931 1 167 2 -1698 2 -1864 0
-2626 -1 -1692 -2z"/>
<path d="M23543 3683 c934 -2 2460 -2 3390 0 931 1 167 2 -1698 2 -1864 0
-2626 -1 -1692 -2z"/>
<path d="M15606 3442 c-2 -4 -7 -24 -11 -45 l-7 -37 42 0 c23 0 50 5 61 10 21
12 25 50 7 68 -13 13 -84 17 -92 4z"/>
<path d="M16212 3337 c-24 -25 -29 -76 -10 -95 34 -34 98 7 98 63 0 57 -48 74
-88 32z"/>
<path d="M16672 3337 c-24 -25 -29 -76 -10 -95 37 -37 98 5 98 67 0 56 -48 71
-88 28z"/>
<path d="M15909 3350 l-24 -19 58 -1 c57 0 67 6 45 28 -18 18 -53 15 -79 -8z"/>
<path d="M16980 3330 c-37 -37 -17 -100 31 -100 25 0 69 43 69 68 0 25 -31 52
-58 52 -12 0 -31 -9 -42 -20z"/>
<path d="M17735 3325 c-28 -28 -32 -66 -9 -89 21 -21 36 -20 68 5 37 29 37 85
0 99 -33 13 -31 14 -59 -15z"/>
<path d="M5760 3220 l0 -50 43 0 c49 0 67 13 67 50 0 37 -18 50 -67 50 l-43 0
0 -50z"/>
<path d="M6885 3246 c-30 -30 -40 -84 -25 -130 22 -67 86 -86 137 -42 25 22
28 31 28 86 0 55 -3 64 -28 86 -36 31 -81 31 -112 0z"/>
<path d="M25690 3215 l0 -55 43 0 c52 0 67 13 67 57 0 38 -21 53 -74 53 l-36
0 0 -55z"/>
<path d="M6098 3103 c-37 -6 -54 -28 -38 -48 16 -20 54 -19 74 1 19 18 21 55
4 53 -7 -1 -25 -4 -40 -6z"/>
<path d="M7498 3103 c-37 -6 -54 -28 -38 -48 16 -20 54 -19 74 1 19 18 21 55
4 53 -7 -1 -25 -4 -40 -6z"/>
<path d="M25043 3103 c-51 -10 -53 -63 -3 -63 33 0 60 23 60 51 0 19 -10 21
-57 12z"/>
<path d="M26013 3103 c-51 -10 -53 -63 -3 -63 33 0 60 23 60 51 0 19 -10 21
-57 12z"/>
<path d="M26850 3180 c-27 -27 -28 -100 -2 -123 25 -22 48 -21 72 3 40 40 15
140 -35 140 -8 0 -24 -9 -35 -20z"/>
<path d="M3350 2290 l0 -120 51 0 c28 0 59 5 70 10 57 31 67 162 15 207 -21
18 -39 23 -82 23 l-54 0 0 -120z"/>
<path d="M5251 2314 c-63 -80 28 -206 95 -133 29 32 26 115 -5 140 -33 27 -66
24 -90 -7z"/>
<path d="M8231 2314 c-63 -80 28 -206 95 -133 29 32 26 115 -5 140 -33 27 -66
24 -90 -7z"/>
<path d="M8920 2290 l0 -120 51 0 c28 0 59 5 70 10 57 31 67 162 15 207 -21
18 -39 23 -82 23 l-54 0 0 -120z"/>
<path d="M22209 2405 c-76 -41 -68 -202 11 -235 70 -29 140 30 140 119 0 99
-76 157 -151 116z"/>
<path d="M24851 2314 c-63 -80 28 -206 95 -133 29 32 26 115 -5 140 -33 27
-66 24 -90 -7z"/>
<path d="M27001 2314 c-63 -80 28 -206 95 -133 29 32 26 115 -5 140 -33 27
-66 24 -90 -7z"/>
<path d="M3965 2315 c-38 -37 -32 -45 40 -45 58 0 65 2 65 19 0 22 -35 51 -63
51 -10 0 -29 -11 -42 -25z"/>
<path d="M4680 2322 c-33 -27 -39 -99 -10 -134 21 -28 61 -37 86 -20 38 25 45
105 13 146 -24 30 -57 34 -89 8z"/>
<path d="M5535 2315 c-38 -37 -32 -45 40 -45 58 0 65 2 65 19 0 22 -35 51 -63
51 -10 0 -29 -11 -42 -25z"/>
<path d="M6101 2239 c-56 -11 -80 -32 -65 -57 28 -45 114 -13 114 43 0 14 -1
25 -2 24 -2 -1 -23 -5 -47 -10z"/>
<path d="M6831 2239 c-56 -11 -80 -32 -65 -57 28 -45 114 -13 114 43 0 14 -1
25 -2 24 -2 -1 -23 -5 -47 -10z"/>
<path d="M7385 2315 c-38 -37 -32 -45 40 -45 58 0 65 2 65 19 0 22 -35 51 -63
51 -10 0 -29 -11 -42 -25z"/>
<path d="M7881 2239 c-56 -11 -80 -32 -65 -57 28 -45 114 -13 114 43 0 14 -1
25 -2 24 -2 -1 -23 -5 -47 -10z"/>
<path d="M8515 2315 c-38 -37 -32 -45 40 -45 58 0 65 2 65 19 0 22 -35 51 -63
51 -10 0 -29 -11 -42 -25z"/>
<path d="M9255 2315 c-39 -38 -32 -45 44 -45 65 0 69 1 64 20 -6 24 -40 50
-66 50 -10 0 -29 -11 -42 -25z"/>
<path d="M9821 2239 c-56 -11 -80 -32 -65 -57 28 -45 114 -13 114 43 0 14 -1
25 -2 24 -2 -1 -23 -5 -47 -10z"/>
<path d="M10380 2322 c-33 -27 -39 -99 -10 -134 21 -28 61 -37 86 -20 38 25
45 105 13 146 -24 30 -57 34 -89 8z"/>
<path d="M10880 2322 c-33 -27 -39 -99 -10 -134 21 -28 61 -37 86 -20 38 25
45 105 13 146 -24 30 -57 34 -89 8z"/>
<path d="M23390 2322 c-33 -27 -39 -99 -10 -134 45 -58 120 -22 120 58 0 77
-58 118 -110 76z"/>
<path d="M24040 2322 c-33 -27 -39 -99 -10 -134 45 -58 120 -22 120 58 0 77
-58 118 -110 76z"/>
<path d="M25141 2314 c-12 -15 -21 -31 -21 -35 0 -5 31 -9 69 -9 65 0 69 1 64
20 -7 26 -41 50 -69 50 -13 0 -32 -12 -43 -26z"/>
<path d="M25721 2314 c-12 -15 -21 -31 -21 -35 0 -5 31 -9 69 -9 65 0 69 1 64
20 -7 26 -41 50 -69 50 -13 0 -32 -12 -43 -26z"/>
<path d="M26740 2322 c-33 -27 -39 -99 -10 -134 45 -58 120 -22 120 58 0 77
-58 118 -110 76z"/>
<path d="M27291 2314 c-12 -15 -21 -31 -21 -35 0 -5 31 -9 69 -9 65 0 69 1 64
20 -7 26 -41 50 -69 50 -13 0 -32 -12 -43 -26z"/>
<path d="M28015 2315 c-51 -50 -20 -155 45 -155 42 0 70 34 70 86 0 82 -64
121 -115 69z"/>
<path d="M28801 2314 c-12 -15 -21 -31 -21 -35 0 -5 31 -9 69 -9 65 0 69 1 64
20 -7 26 -41 50 -69 50 -13 0 -32 -12 -43 -26z"/>
<path d="M4364 1786 c-54 -24 -75 -126 -40 -194 20 -39 77 -59 118 -43 88 33
89 208 2 241 -32 13 -42 12 -80 -4z"/>
<path d="M7011 1694 c-63 -80 28 -206 95 -133 29 32 26 115 -5 140 -33 27 -66
24 -90 -7z"/>
<path d="M5550 1702 c-33 -27 -39 -99 -10 -134 21 -28 61 -37 86 -20 38 25 45
105 13 146 -24 30 -57 34 -89 8z"/>
<path d="M6200 1702 c-33 -27 -39 -99 -10 -134 21 -28 61 -37 86 -20 38 25 45
105 13 146 -24 30 -57 34 -89 8z"/>
<path d="M7295 1695 c-38 -37 -32 -45 40 -45 58 0 65 2 65 19 0 22 -35 51 -63
51 -10 0 -29 -11 -42 -25z"/>
<path d="M7875 1695 c-39 -38 -32 -45 44 -45 65 0 69 1 64 20 -6 24 -40 50
-66 50 -10 0 -29 -11 -42 -25z"/>
<path d="M8895 1695 c-39 -38 -32 -45 44 -45 65 0 69 1 64 20 -6 24 -40 50
-66 50 -10 0 -29 -11 -42 -25z"/>
<path d="M9180 1702 c-33 -27 -39 -99 -10 -134 21 -28 61 -37 86 -20 38 25 45
105 13 146 -24 30 -57 34 -89 8z"/>
<path d="M9454 1699 c-13 -15 -19 -36 -19 -69 0 -56 24 -90 65 -90 41 0 65 33
65 92 0 40 -5 53 -24 69 -30 25 -63 24 -87 -2z"/>
<path d="M9771 1619 c-56 -11 -80 -32 -65 -57 28 -45 114 -13 114 43 0 14 -1
25 -2 24 -2 -1 -23 -5 -47 -10z"/>
<path d="M9991 1694 c-31 -40 -24 -112 13 -136 21 -15 63 -8 82 13 29 32 26
105 -5 130 -33 27 -66 24 -90 -7z"/>
<path d="M10280 1702 c-33 -27 -39 -99 -10 -134 21 -28 61 -37 86 -20 38 25
45 105 13 146 -24 30 -57 34 -89 8z"/>
</g>
</svg>
